<?xml version="1.0" encoding="UTF-8"?>
<svg version="1.1" xmlns="http://www.w3.org/2000/svg" width="500" height="500">
<path d="M0 0 C0.80151489 -0.01087143 1.60302979 -0.02174286 2.42883301 -0.03294373 C5.49734195 0.16313212 7.29358763 1.05569539 9.56054688 3.10327148 C10.37304688 5.29077148 10.37304688 5.29077148 10.56054688 7.10327148 C11.22054687 7.10327148 11.88054687 7.10327148 12.56054688 7.10327148 C13.84960937 8.78295898 13.84960937 8.78295898 15.18554688 10.97827148 C15.6315625 11.69756836 16.07757813 12.41686523 16.53710938 13.15795898 C17.56054688 15.10327148 17.56054688 15.10327148 17.56054688 17.10327148 C18.22054687 17.10327148 18.88054687 17.10327148 19.56054688 17.10327148 C20.07617188 18.03139648 20.59179688 18.95952148 21.12304688 19.91577148 C23.61915695 24.3132506 26.39557281 28.52216603 29.16992188 32.74780273 C30.56054688 35.10327148 30.56054688 35.10327148 30.56054688 37.10327148 C31.22054687 37.10327148 31.88054687 37.10327148 32.56054688 37.10327148 C34.06835937 39.07202148 34.06835937 39.07202148 35.68554688 41.60327148 C36.224375 42.43858398 36.76320313 43.27389648 37.31835938 44.13452148 C37.72828125 44.78420898 38.13820313 45.43389648 38.56054688 46.10327148 C40.01023609 43.20389304 39.74438154 40.60880755 39.80664062 37.37280273 C39.8396051 35.99844803 39.87281627 34.62409923 39.90625 33.24975586 C39.95344991 31.08858675 39.99783357 28.92743692 40.03735352 26.76611328 C40.07743391 24.67641276 40.12891274 22.5872173 40.18164062 20.49780273 C40.21922485 18.62378784 40.21922485 18.62378784 40.25756836 16.71191406 C40.68697861 11.59739926 41.22247607 7.64527746 44.65258789 3.69238281 C48.48406518 1.59859676 51.83603563 1.58246038 56.08789062 1.67749023 C56.91325821 1.68077835 57.73862579 1.68406647 58.58900452 1.68745422 C61.2258896 1.70315598 63.86149343 1.74708237 66.49804688 1.79077148 C68.23566645 1.80227461 69.97329832 1.81205628 71.7109375 1.82006836 C100.03719801 2.01904104 100.03719801 2.01904104 104.56054688 5.10327148 C105.16804218 7.27322578 105.16804218 7.27322578 105.3072052 9.96096802 C105.36243158 10.9533057 105.41765797 11.94564339 105.47455788 12.96805191 C105.61555233 18.10880924 105.66052232 23.23758887 105.61401367 28.38012695 C105.60761871 29.55388382 105.60122375 30.72764069 105.59463501 31.93696594 C105.5720195 35.78152474 105.54135868 39.62596419 105.50976562 43.47045898 C105.49538568 45.47626551 105.48100822 47.48207207 105.46694309 49.48788083 C105.42265374 55.77704255 105.37239515 62.06613759 105.31860352 68.35522461 C105.26333048 74.83264028 105.21939732 81.31006606 105.18075246 87.7876004 C105.1469986 93.36753454 105.10568008 98.94737903 105.05842716 104.52721512 C105.03038015 107.85218201 105.00619577 111.17709613 104.98776817 114.50213242 C104.96623388 118.20249586 104.93232802 121.90254722 104.89526367 125.6027832 C104.89153244 126.69896469 104.88780121 127.79514618 104.88395691 128.92454529 C104.86504395 130.43817909 104.86504395 130.43817909 104.8457489 131.98239136 C104.83891932 132.855791 104.83208975 133.72919064 104.82505322 134.62905693 C104.52183262 137.46540785 103.8508787 139.56056159 102.56054688 142.10327148 C99.38371188 144.22116148 98.58111295 144.35752276 94.94067383 144.37792969 C94.00572586 144.3874617 93.07077789 144.39699371 92.10749817 144.40681458 C91.09813705 144.40590317 90.08877594 144.40499176 89.04882812 144.40405273 C87.48554024 144.41048042 87.48554024 144.41048042 85.89067078 144.41703796 C83.68241095 144.42278512 81.47413219 144.4232787 79.26586914 144.41894531 C75.90347459 144.41579995 72.5419723 144.43918943 69.1796875 144.46459961 C67.03190215 144.46687416 64.88411444 144.46757538 62.73632812 144.46655273 C61.23746819 144.48036736 61.23746819 144.48036736 59.70832825 144.49446106 C53.6281783 144.45462554 49.07385154 143.73339722 43.56054688 141.10327148 C40.81054688 138.22827148 40.81054688 138.22827148 38.56054688 135.10327148 C37.41585937 133.77295898 37.41585937 133.77295898 36.24804688 132.41577148 C34.56054688 130.10327148 34.56054688 130.10327148 34.56054688 127.10327148 C33.90054688 127.10327148 33.24054688 127.10327148 32.56054688 127.10327148 C31.13655997 125.38808072 29.79422528 123.60448028 28.49804688 121.79077148 C27.78519531 120.80463867 27.07234375 119.81850586 26.33789062 118.80249023 C24.56054688 116.10327148 24.56054688 116.10327148 23.56054688 113.10327148 C22.25260357 111.74502266 20.9115379 110.41871012 19.56054688 109.10327148 C17.19800426 106.461888 14.87749349 103.78468161 12.56054688 101.10327148 C10.5787625 103.08505586 11.32882167 106.96451315 11.27929688 109.68139648 C11.26088745 110.44498474 11.24247803 111.208573 11.22351074 111.99530029 C11.16458736 114.4478767 11.1118957 116.90052551 11.06054688 119.35327148 C10.99268345 122.56695329 10.91888445 125.78042434 10.84179688 128.99389648 C10.82822144 129.73053528 10.814646 130.46717407 10.80065918 131.22613525 C10.71109796 134.96083812 10.44041113 138.46804287 9.56054688 142.10327148 C-2.87619042 143.53778701 -15.22889151 144.33281089 -27.75195312 144.41577148 C-28.97229248 144.43317383 -30.19263184 144.45057617 -31.44995117 144.46850586 C-32.61824463 144.46786133 -33.78653809 144.4672168 -34.99023438 144.46655273 C-36.01802002 144.46953369 -37.04580566 144.47251465 -38.10473633 144.47558594 C-42.46687717 143.98856165 -46.33736828 142.6185259 -50.43945312 141.10327148 C-52.11696494 106.88890777 -53.74072634 72.66422948 -53.86132812 38.40292358 C-53.87172228 35.75056549 -53.88878322 33.09822492 -53.91259766 30.44595337 C-53.94192518 26.76497064 -53.94366678 23.08512009 -53.93554688 19.40405273 C-53.94666 18.32401978 -53.95777313 17.24398682 -53.96922302 16.13122559 C-53.90133294 8.86510399 -53.90133294 8.86510399 -51.53344727 4.95947266 C-47.53593956 1.41592 -43.52764303 1.79335907 -38.40820312 1.56811523 C-37.50251587 1.52513809 -36.59682861 1.48216095 -35.66369629 1.43788147 C-33.74041505 1.34756112 -31.81702929 1.25944403 -29.89355469 1.17333984 C-26.97889999 1.0425417 -24.06465547 0.90456741 -21.15039062 0.76538086 C-19.27801477 0.67836146 -17.40561942 0.59176018 -15.53320312 0.50561523 C-14.67239136 0.46500473 -13.81157959 0.42439423 -12.92468262 0.3825531 C-8.61732988 0.19234378 -4.31130543 0.05551226 0 0 Z " fill="#E14962" transform="translate(205.439453125,177.896728515625)"/>
<path d="M0 0 C0.91193219 -0.00367669 1.82386439 -0.00735338 2.76343089 -0.01114148 C5.82014231 -0.02215729 8.8768197 -0.02601859 11.93354797 -0.02983093 C14.12492989 -0.03609713 16.31631074 -0.04274407 18.50769043 -0.04974365 C25.70472984 -0.07076639 32.90176943 -0.0811438 40.09883118 -0.09111023 C42.57784855 -0.09515833 45.05686581 -0.09927527 47.53588295 -0.10346031 C58.51432451 -0.12141526 69.49276148 -0.13579465 80.47121512 -0.14363671 C82.47851618 -0.14507514 84.48581724 -0.14652652 86.49311829 -0.147995 C87.48978893 -0.14872061 87.48978893 -0.14872061 88.50659434 -0.14946087 C99.26634064 -0.1577584 110.02597567 -0.18309294 120.7856734 -0.21557567 C131.84418472 -0.24868713 142.90263667 -0.26632896 153.9611972 -0.26985329 C160.1654563 -0.27220285 166.36953937 -0.28115151 172.57375145 -0.30631447 C178.41211312 -0.32961156 184.25018306 -0.33382163 190.08857918 -0.32355309 C192.22748155 -0.32305803 194.36639836 -0.32936935 196.50525665 -0.34310913 C199.43362039 -0.36086322 202.36094109 -0.35370437 205.28930664 -0.34057617 C206.12834005 -0.35154542 206.96737345 -0.36251466 207.83183211 -0.37381631 C215.44272198 -0.2918848 222.71322479 1.77409375 228.39961243 7.02217102 C234.62925345 14.00851985 235.11120543 21.31964927 235.10928345 30.21629333 C235.11296014 31.13160352 235.11663682 32.0469137 235.12042493 32.98996055 C235.13144115 36.0581575 235.13530212 39.12632055 235.13911438 42.1945343 C235.14538059 44.39414578 235.15202753 46.59375621 235.1590271 48.79336548 C235.18005122 56.01806402 235.19042797 63.24276273 235.20039368 70.46748352 C235.20444185 72.95638414 235.20855879 75.44528464 235.21274376 77.93418503 C235.2306996 88.957402 235.24507841 99.98061441 235.25292016 111.00384342 C235.25435858 113.01939273 235.25580996 115.03494204 235.25727844 117.05049133 C235.25776218 117.71766673 235.25824592 118.38484214 235.25874432 119.07223497 C235.26703976 129.87333796 235.29237036 140.67433002 235.32485912 151.47538461 C235.35798117 162.57796632 235.37561349 173.68050192 235.37913674 184.78313434 C235.38148537 191.01145835 235.39042187 197.23960694 235.41559792 203.46788406 C235.43891152 209.33005097 235.44309845 215.19192736 235.43283653 221.05412865 C235.43234187 223.20067373 235.43864172 225.34723327 235.45239258 227.49373436 C235.59604196 251.25481393 235.59604196 251.25481393 229.32112598 259.23379707 C220.4892531 268.02825778 208.46656675 267.53349441 196.81765747 267.55375671 C194.80656343 267.54792524 192.79547028 267.54178082 190.78437805 267.53535461 C188.64299248 267.53942462 186.50160902 267.5447689 184.36022949 267.55128479 C178.56895189 267.5649131 172.77783537 267.55967825 166.9865551 267.55014753 C160.912526 267.54252768 154.83851026 267.549603 148.76448059 267.55430603 C138.56617265 267.55975681 128.36792998 267.55258974 118.16963196 267.5382843 C106.39586038 267.52195915 94.62224469 267.52724813 82.84847689 267.54376352 C72.72161418 267.55739768 62.59479828 267.5592886 52.46792936 267.55144751 C46.42753769 267.54678162 40.38721918 267.54611631 34.34683228 267.55605698 C28.66680961 267.56475243 22.98698702 267.55865758 17.30698586 267.54137421 C15.22817631 267.53742314 13.14934979 267.53851963 11.0705471 267.5451622 C-12.36633302 267.61312102 -12.36633302 267.61312102 -21.41288757 262.08467102 C-30.80688081 251.57234525 -29.75170527 240.21904066 -29.68486023 226.85786438 C-29.69164133 224.58529969 -29.70054722 222.3127405 -29.71141052 220.04019165 C-29.73415014 213.88734539 -29.72538959 207.73491964 -29.70951509 201.5820663 C-29.69683015 195.13472685 -29.70860328 188.68742269 -29.71644592 182.24008179 C-29.72611585 170.72259351 -29.71060823 159.20531971 -29.68514924 147.68786503 C-29.66280724 137.25778341 -29.66669786 126.82798006 -29.68974304 116.39790344 C-29.71653571 104.26617784 -29.72644257 92.13467045 -29.71168172 80.00290972 C-29.70389585 73.58805288 -29.70282226 67.17338748 -29.71936417 60.75854301 C-29.73382993 54.72794875 -29.72374782 48.69787897 -29.69489288 42.66734123 C-29.68829375 40.45708079 -29.69015957 38.24677604 -29.70120621 36.03653336 C-29.71491888 33.01369323 -29.69767576 29.99252206 -29.67280579 26.9697876 C-29.68395939 26.10012436 -29.695113 25.23046113 -29.7066046 24.33444446 C-29.60481718 17.93386022 -27.73831929 13.36591764 -24.03788757 8.14717102 C-21.53788757 5.77217102 -21.53788757 5.77217102 -19.03788757 4.14717102 C-17.80038757 3.31185852 -17.80038757 3.31185852 -16.53788757 2.45967102 C-11.27741958 -0.30207468 -5.79792148 -0.00125728 0 0 Z M-16.93417358 14.51934814 C-20.522051 19.32643901 -19.73705885 25.47198303 -19.6973114 31.19233704 C-19.70576992 32.52777182 -19.7164115 33.86319428 -19.72905445 35.198596 C-19.7572438 38.83633864 -19.75466871 42.47349288 -19.74674845 46.11131191 C-19.74365874 49.97806669 -19.76907101 53.84464086 -19.79115295 57.71131897 C-19.82919457 65.14864155 -19.84131235 72.58577938 -19.84411693 80.0231899 C-19.84831519 88.53612106 -19.87859307 97.0488954 -19.91053975 105.56176031 C-19.96601425 120.53748328 -19.99715818 135.51314465 -20.01424325 150.48895586 C-20.02960882 163.63921787 -20.07607676 176.7891252 -20.14131355 189.93924141 C-20.17465652 196.99247418 -20.19603164 204.04574829 -20.21732712 211.09902573 C-20.22536003 213.45160397 -20.23603897 215.80415807 -20.24726868 218.15672302 C-20.26648031 222.37884356 -20.26878227 226.60078843 -20.26835632 230.82295227 C-20.27547638 232.00121582 -20.28259644 233.17947937 -20.28993225 234.39344788 C-20.28219695 244.2706359 -20.28219695 244.2706359 -15.91288757 252.89717102 C-9.70674954 257.75414861 -3.55388479 258.59130041 4.05705261 258.53485107 C4.93887966 258.54023661 5.82070671 258.54562215 6.7292558 258.55117089 C9.66623139 258.56540905 12.60275364 258.55835696 15.53974915 258.55122375 C17.65275941 258.55692951 19.76576659 258.56389456 21.87876892 258.57202148 C27.60610124 258.58994594 33.33328029 258.58878572 39.06063223 258.5830791 C43.84684446 258.57998601 48.6330273 258.5860811 53.41923535 258.59211785 C64.71333779 258.60615934 76.00736458 258.60460508 87.3014679 258.59321594 C98.94174174 258.5817369 110.58178513 258.5958078 122.22202861 258.62261242 C132.22652617 258.6447853 142.23095147 258.65140314 152.23547184 258.64553601 C158.20604224 258.64216884 164.17646495 258.64456564 170.14701462 258.66178703 C175.76301807 258.6772791 181.37868077 258.67327523 186.99467087 258.65448189 C189.05132483 258.65080221 191.10800416 258.65388628 193.1646347 258.66436768 C207.67956663 259.18250974 207.67956663 259.18250974 220.96211243 254.14717102 C226.0465771 248.19462701 226.11030838 242.87139579 226.10255432 235.32324219 C226.10552544 234.42229838 226.10849657 233.52135457 226.11155772 232.59310943 C226.12024412 229.56774495 226.12175292 226.54242004 226.12324524 223.51704407 C226.12787342 221.35049861 226.13289808 219.18395397 226.13829041 217.01741028 C226.15141564 211.12686944 226.15785951 205.23633999 226.16230106 199.34578681 C226.16523135 195.66652571 226.16933605 191.98726773 226.17380524 188.30800819 C226.18747996 176.79901763 226.19714697 165.2900342 226.20100713 153.78103608 C226.20548917 140.4906053 226.22304397 127.20029912 226.25200772 113.90989846 C226.27361354 103.63972757 226.28371081 93.36958562 226.28504825 83.09939224 C226.28609698 76.96399442 226.29201953 70.82869323 226.30986786 64.69331932 C226.32632962 58.92231819 226.32851318 53.1514865 226.31972885 47.38047028 C226.31895749 45.2628897 226.32331422 43.14530009 226.3331871 41.02774239 C226.34587998 38.13564292 226.34004409 35.24414603 226.3296051 32.35205078 C226.33766151 31.51526958 226.34571791 30.67848837 226.35401845 29.81635016 C226.29804975 23.1806245 224.96903184 18.52378611 220.58711243 13.33467102 C215.32642253 8.95076277 210.62270354 8.85681164 204.05589294 8.88647461 C203.15817826 8.88264906 202.26046358 8.87882352 201.33554542 8.87488204 C198.32705639 8.86456221 195.31875857 8.86854229 192.31025696 8.87251282 C190.15341515 8.86816577 187.9965749 8.86298265 185.83973694 8.85702515 C179.98022838 8.84362275 174.12078427 8.8430579 168.26126337 8.84558845 C163.37054101 8.84665738 158.47983173 8.84177676 153.58911216 8.83698303 C142.05116352 8.82588342 130.51324742 8.82545291 118.97529602 8.83149719 C107.07092859 8.83753753 95.16667934 8.82522541 83.26233208 8.80392712 C73.0430905 8.7863157 62.82388655 8.78030907 52.60463035 8.78356487 C46.50055408 8.78537869 40.39656209 8.78273164 34.29249954 8.76885033 C28.55184293 8.75628425 22.81137061 8.75820466 17.07071686 8.77126122 C14.96442732 8.77362924 12.85812486 8.77088424 10.75185013 8.76263809 C7.87511893 8.75218819 4.9990081 8.76025742 2.12229919 8.77294922 C0.87398699 8.76188779 0.87398699 8.76188779 -0.39954364 8.7506029 C-7.05988286 8.81236045 -11.67173454 10.20919456 -16.93417358 14.51934814 Z " fill="#DA4860" transform="translate(129.0378875732422,110.85282897949219)"/>
<path d="M0 0 C0.91193219 -0.00367669 1.82386439 -0.00735338 2.76343089 -0.01114148 C5.82014231 -0.02215729 8.8768197 -0.02601859 11.93354797 -0.02983093 C14.12492989 -0.03609713 16.31631074 -0.04274407 18.50769043 -0.04974365 C25.70472984 -0.07076639 32.90176943 -0.0811438 40.09883118 -0.09111023 C42.57784855 -0.09515833 45.05686581 -0.09927527 47.53588295 -0.10346031 C58.51432451 -0.12141526 69.49276148 -0.13579465 80.47121512 -0.14363671 C82.47851618 -0.14507514 84.48581724 -0.14652652 86.49311829 -0.147995 C87.48978893 -0.14872061 87.48978893 -0.14872061 88.50659434 -0.14946087 C99.26634064 -0.1577584 110.02597567 -0.18309294 120.7856734 -0.21557567 C131.84418472 -0.24868713 142.90263667 -0.26632896 153.9611972 -0.26985329 C160.1654563 -0.27220285 166.36953937 -0.28115151 172.57375145 -0.30631447 C178.41211312 -0.32961156 184.25018306 -0.33382163 190.08857918 -0.32355309 C192.22748155 -0.32305803 194.36639836 -0.32936935 196.50525665 -0.34310913 C199.43362039 -0.36086322 202.36094109 -0.35370437 205.28930664 -0.34057617 C206.12834005 -0.35154542 206.96737345 -0.36251466 207.83183211 -0.37381631 C215.44272198 -0.2918848 222.71322479 1.77409375 228.39961243 7.02217102 C234.65483718 14.03721121 235.11258134 21.36035576 235.08236694 30.29031372 C235.08364858 31.67492083 235.08364858 31.67492083 235.08495611 33.0874998 C235.08660358 36.18138454 235.08110148 39.2752151 235.07563782 42.36909485 C235.07535576 44.58655292 235.07551404 46.80401109 235.07608032 49.02146912 C235.07636758 55.04371641 235.07048237 61.06594383 235.06350636 67.0881865 C235.05726095 73.38093354 235.05666808 79.67368101 235.05548096 85.96643066 C235.05272462 96.52920367 235.04647568 107.09197016 235.03755188 117.65473938 C235.02837057 128.53364526 235.02129325 139.41254916 235.01704407 150.29145813 C235.01664998 151.29759871 235.01664998 151.29759871 235.01624794 152.32406536 C235.01494288 155.68912821 235.01367918 159.05419107 235.01243603 162.41925395 C235.00197959 190.32856472 234.98438691 218.23786736 234.96211243 246.14717102 C234.30211243 246.14717102 233.64211243 246.14717102 232.96211243 246.14717102 C232.96211243 170.57717102 232.96211243 95.00717102 232.96211243 17.14717102 C231.97211243 17.14717102 230.98211243 17.14717102 229.96211243 17.14717102 C229.63211243 16.15717102 229.30211243 15.16717102 228.96211243 14.14717102 C228.30211243 14.14717102 227.64211243 14.14717102 226.96211243 14.14717102 C226.96211243 12.16717102 226.96211243 10.18717102 226.96211243 8.14717102 C225.97211243 8.14717102 224.98211243 8.14717102 223.96211243 8.14717102 C223.96211243 11.11717102 223.96211243 14.08717102 223.96211243 17.14717102 C222.97211243 16.48717102 221.98211243 15.82717102 220.96211243 15.14717102 C220.96211243 14.48717102 220.96211243 13.82717102 220.96211243 13.14717102 C215.16549847 10.79719239 210.53868235 10.00030912 204.29640198 10.00672913 C203.40039614 10.003758 202.50439031 10.00078688 201.58123279 9.99772573 C198.56658174 9.98902585 195.55197035 9.98752938 192.53730774 9.98603821 C190.38076187 9.98141093 188.22421682 9.97638639 186.06767273 9.97099304 C180.19979922 9.95785794 174.33193716 9.95142186 168.46405125 9.94698238 C164.79936887 9.94405332 161.13468964 9.93994882 157.47000885 9.93547821 C146.00800123 9.92180007 134.54600078 9.91213508 123.08398557 9.90827632 C109.84562193 9.90379528 96.60736153 9.88624653 83.36902928 9.85727572 C73.14134104 9.8356692 62.91368185 9.82557258 52.68597102 9.8242352 C46.57515037 9.8231864 40.46442672 9.81726251 34.35363007 9.79941559 C28.60480293 9.78295288 22.8561459 9.78077073 17.10730362 9.7895546 C14.99778666 9.79032594 12.88826063 9.78596942 10.77876663 9.77609634 C7.89756057 9.76340281 5.0169593 9.76923974 2.13575745 9.77967834 C1.30218507 9.77162194 0.46861269 9.76356554 -0.39021945 9.755265 C-6.87222782 9.81013851 -11.60041015 10.80464814 -16.4429512 15.45854282 C-18.32377594 18.62910092 -18.54395731 20.49580333 -18.55686951 24.16522217 C-18.57078232 25.37403549 -18.58469513 26.58284882 -18.59902954 27.82829285 C-18.59399918 29.14709442 -18.58896881 30.465896 -18.58378601 31.82466125 C-18.59252674 33.23484434 -18.60301427 34.64501751 -18.6151123 36.05517578 C-18.64301116 39.88742895 -18.64637517 43.71935941 -18.64539242 47.5516994 C-18.64853566 51.59230804 -18.67420659 55.63277483 -18.69737244 59.67330933 C-18.73800008 67.35808227 -18.75827355 75.04277071 -18.77134633 82.72763449 C-18.78701257 91.35254686 -18.82550914 99.9773056 -18.86593962 108.60213172 C-18.92534832 121.41465 -18.97468133 134.22717879 -19.00440645 147.03980172 C-19.0078237 148.49323771 -19.01144325 149.94667325 -19.01527357 151.40010822 C-19.03565863 159.18545574 -19.03907231 166.97028095 -19.00724792 174.75559998 C-19.00278218 176.14257047 -18.99842254 177.52954131 -18.99417496 178.91651249 C-18.98518363 181.4957978 -18.97207504 184.07507349 -18.9540062 186.65431118 C-18.93624136 192.26288722 -19.01239077 197.62637815 -20.03788757 203.14717102 C-20.36788757 203.14717102 -20.69788757 203.14717102 -21.03788757 203.14717102 C-21.06121971 179.19109399 -21.0788683 155.23501866 -21.08969975 131.27893257 C-21.09486203 120.15639492 -21.10190345 109.03386431 -21.11332703 97.91133118 C-21.12327592 88.22002466 -21.12974149 78.52872324 -21.13197607 68.83741176 C-21.13328282 63.70316173 -21.13636648 58.5689263 -21.14361763 53.43468094 C-21.15038107 48.60686582 -21.15250387 43.77907139 -21.15099525 38.95125198 C-21.15127144 37.17505277 -21.15327465 35.3988529 -21.15709305 33.62265778 C-21.16203533 31.20608991 -21.16088386 28.78960114 -21.15814209 26.37303162 C-21.16105493 25.66292281 -21.16396777 24.95281401 -21.16696888 24.22118676 C-21.15200878 19.37541344 -21.15200878 19.37541344 -20.03788757 17.14717102 C-21.02788757 17.47717102 -22.01788757 17.80717102 -23.03788757 18.14717102 C-23.03788757 17.48717102 -23.03788757 16.82717102 -23.03788757 16.14717102 C-23.69788757 16.14717102 -24.35788757 16.14717102 -25.03788757 16.14717102 C-24.37788757 18.78717102 -23.71788757 21.42717102 -23.03788757 24.14717102 C-24.35788757 24.47717102 -25.67788757 24.80717102 -27.03788757 25.14717102 C-27.03788757 24.15717102 -27.03788757 23.16717102 -27.03788757 22.14717102 C-27.69788757 22.14717102 -28.35788757 22.14717102 -29.03788757 22.14717102 C-28.90222073 14.68549455 -26.26449884 10.41526333 -21.03788757 5.14717102 C-14.52521323 0.12468487 -7.86185882 -0.00170484 0 0 Z " fill="#E0677C" transform="translate(129.0378875732422,110.85282897949219)"/>
<path d="M0 0 C1.65 0.33 3.3 0.66 5 1 C4.75661712 1.86842603 4.75661712 1.86842603 4.50831741 2.75439602 C3.68158656 6.40666142 3.85353642 10.11034373 3.85523987 13.83738708 C3.85171302 14.73974203 3.84818618 15.64209697 3.84455246 16.571796 C3.83385986 19.60182424 3.83018352 22.63182106 3.82641602 25.66186523 C3.82011126 27.83165622 3.81334555 30.00144591 3.80615234 32.17123413 C3.79147832 36.84695097 3.77975532 41.5226628 3.77020454 46.19839287 C3.75476516 53.58899665 3.73081692 60.97955745 3.70530701 68.37013245 C3.63406689 89.3871086 3.57427963 110.40410891 3.52319336 131.42114258 C3.49490983 143.02610962 3.45954107 154.63103373 3.41653961 166.23595577 C3.38973635 173.58555054 3.37185026 180.93509673 3.36050236 188.28473079 C3.35138835 192.85415713 3.3340324 197.42352434 3.31432343 201.99291611 C3.30683865 204.11454783 3.30276631 206.2361947 3.30232811 208.35783958 C3.30124806 211.25055392 3.28802241 214.1429664 3.27174377 217.03562927 C3.27436063 217.87823616 3.27697748 218.72084305 3.27967364 219.58898348 C3.24217446 223.84503434 2.96778303 227.1170912 1 231 C0.34 231 -0.32 231 -1 231 C-1 230.34 -1 229.68 -1 229 C-1.66 229 -2.32 229 -3 229 C-3 155.41 -3 81.82 -3 6 C-2.34 6.66 -1.68 7.32 -1 8 C-0.02391783 5.07175348 0.08226668 3.04386724 0 0 Z " fill="#E24760" transform="translate(104,127)"/>
<path d="M0 0 C112.365 0.495 112.365 0.495 227 1 C226.67 1.66 226.34 2.32 226 3 C197.5668491 3.04671027 169.13370395 3.08198409 140.70052242 3.10362434 C127.49865881 3.11393912 114.29681902 3.12800336 101.0949707 3.15087891 C89.58892586 3.17080655 78.08289827 3.18371497 66.57683665 3.18817699 C60.4838752 3.19078542 54.39096313 3.19692065 48.2980175 3.21146011 C42.56321657 3.22503408 36.82848536 3.22922298 31.09366989 3.22621536 C28.98899392 3.2267656 26.88431562 3.23074412 24.77965355 3.23841095 C21.90497297 3.24836919 19.03055527 3.24596557 16.15586853 3.24050903 C15.32414074 3.24633472 14.49241296 3.2521604 13.6354813 3.25816262 C8.71532486 3.23294053 4.66927381 2.57085586 0 1 C0 0.67 0 0.34 0 0 Z " fill="#E27884" transform="translate(115,375)"/>
<path d="M0 0 C0.99 0 1.98 0 3 0 C4 3 4 3 3 6 C3.99 5.67 4.98 5.34 6 5 C6 6.32 6 7.64 6 9 C6.99 9 7.98 9 9 9 C9.21887714 38.54651285 9.41706583 68.09310769 9.58644359 97.63994634 C9.60646628 101.12959403 9.62666505 104.61924068 9.64697266 108.10888672 C9.65101251 108.80360148 9.65505237 109.49831624 9.65921465 110.21408296 C9.7250151 121.45729382 9.80507306 132.70036013 9.89041659 143.9434377 C9.97769342 155.48309805 10.04930826 167.02276701 10.10732102 178.56261349 C10.14039458 185.04303995 10.18057521 191.52324694 10.2377243 198.00350952 C10.29129626 204.10353581 10.32591292 210.20337669 10.34602928 216.30360222 C10.3567445 218.54174173 10.37436948 220.77986054 10.39944649 223.01788521 C10.43267799 226.07629757 10.44092903 229.13381317 10.4430542 232.19238281 C10.46636767 233.51731514 10.46636767 233.51731514 10.49015212 234.86901379 C10.45349044 241.64006774 8.69030263 246.81831789 4.2890625 252.0234375 C0.69920726 254.93914152 -2.35342741 257.09088797 -7 258 C-9.875 257.625 -9.875 257.625 -12 257 C-12 256.67 -12 256.34 -12 256 C-10.02 256 -8.04 256 -6 256 C-6 255.34 -6 254.68 -6 254 C-4.515 253.01 -4.515 253.01 -3 252 C-2.27617533 249.94074861 -2.27617533 249.94074861 -2 248 C-2.70125 248.515625 -3.4025 249.03125 -4.125 249.5625 C-7.60887535 251.30443767 -9.2983569 250.94693195 -13 250 C-10.60263957 248.70911362 -8.53309305 247.87860419 -5.875 247.1875 C-2.84158618 246.28881137 -2.84158618 246.28881137 -1.75 243.6875 C-1.37875 242.3571875 -1.37875 242.3571875 -1 241 C-0.33333333 239.33333333 0.33333333 237.66666667 1 236 C1.33 236 1.66 236 2 236 C2.05437607 237.58294782 2.09296271 239.16644256 2.125 240.75 C2.14820313 241.63171875 2.17140625 242.5134375 2.1953125 243.421875 C1.99139502 246.1135858 1.36551721 247.69904974 0 250 C0.99 250 1.98 250 3 250 C3.33 248.35 3.66 246.7 4 245 C4.66 245 5.32 245 6 245 C6 244.34 6 243.68 6 243 C6.66 243 7.32 243 8 243 C8 167.43 8 91.86 8 14 C6.35 14.66 4.7 15.32 3 16 C2.67 16.99 2.34 17.98 2 19 C0.04978464 12.53991163 -0.22262303 6.7281627 0 0 Z " fill="#D74C62" transform="translate(353,119)"/>
<path d="M0 0 C4.63973089 1.98845609 7.21457049 4.69997874 9.8125 9 C11.01320986 12.03337227 11.24284687 13.06236194 10 16 C10 15.01 10 14.02 10 13 C9.01 13 8.02 13 7 13 C6.67 12.01 6.34 11.02 6 10 C5.34 10 4.68 10 4 10 C4 8.02 4 6.04 4 4 C3.01 4 2.02 4 1 4 C1 6.97 1 9.94 1 13 C0.01 12.34 -0.98 11.68 -2 11 C-2 10.34 -2 9.68 -2 9 C-7.79507981 6.65064332 -12.43425409 5.84901913 -18.67485046 5.84178162 C-19.57171171 5.83684364 -20.46857295 5.83190566 -21.3926118 5.82681805 C-24.40976989 5.81141138 -27.42690665 5.80307384 -30.4440918 5.79467773 C-32.60214426 5.7851017 -34.76019483 5.77509179 -36.91824341 5.76467896 C-42.78770124 5.73759405 -48.65716714 5.7166039 -54.52665305 5.69667697 C-60.65660312 5.67483952 -66.7865282 5.64743988 -72.91645813 5.62062073 C-84.52924025 5.5706635 -96.14203621 5.52573592 -107.75484544 5.48259836 C-120.97354338 5.43325187 -134.19221627 5.37832415 -147.41088998 5.32291877 C-174.60723662 5.20905221 -201.80360728 5.10222336 -229 5 C-229 4.67 -229 4.34 -229 4 C-200.27153379 3.97665506 -171.543069 3.95901297 -142.81459522 3.94818783 C-129.47592133 3.94302827 -116.13725403 3.93599202 -102.79858398 3.92456055 C-91.17463114 3.91460335 -79.55068256 3.90814409 -67.92672557 3.90591151 C-61.77012809 3.90460617 -55.61354281 3.90153142 -49.45694923 3.89426994 C-43.66471407 3.88749343 -37.87249616 3.88538639 -32.08025742 3.88689232 C-29.95216847 3.88661673 -27.82407895 3.88462127 -25.69599342 3.88079453 C-22.79440336 3.87583186 -19.89287875 3.87701129 -16.99128723 3.87974548 C-16.14595187 3.87683264 -15.3006165 3.8739198 -14.42966491 3.87091869 C-11.18431262 3.87920514 -8.30659706 3.93253417 -5.12554455 4.63251591 C-2.70699224 5.30179673 -2.70699224 5.30179673 0 3 C0 2.01 0 1.02 0 0 Z " fill="#C9576A" transform="translate(352,115)"/>
<path d="M0 0 C0.66 0.99 1.32 1.98 2 3 C2.66 2.34 3.32 1.68 4 1 C4.3403125 2.5778125 4.3403125 2.5778125 4.6875 4.1875 C6.1599298 9.38307373 9.60728163 12.07152109 14 15 C12.02 15.99 10.04 16.98 8 18 C8.66 18 9.32 18 10 18 C10 18.66 10 19.32 10 20 C8.35 20.66 6.7 21.32 5 22 C-0.65278111 18.05619923 -3.61961709 13.47759067 -6 7 C-6 5.68 -6 4.36 -6 3 C-5.01 3 -4.02 3 -3 3 C-3 3.66 -3 4.32 -3 5 C-2.34 5 -1.68 5 -1 5 C-0.67 3.35 -0.34 1.7 0 0 Z " fill="#DE5E74" transform="translate(106,353)"/>
<path d="M0 0 C0 0.66 0 1.32 0 2 C-0.99 2.66 -1.98 3.32 -3 4 C-2.34 4.33 -1.68 4.66 -1 5 C-0.67 5.33 -0.34 5.66 0 6 C0.99 6.33 1.98 6.66 3 7 C2.2575 7.556875 1.515 8.11375 0.75 8.6875 C-1.92979286 10.94096218 -3.8728537 13.23470981 -6 16 C-6.98230498 17.0173873 -7.97469597 18.02596117 -9 19 C-8.67 17.68 -8.34 16.36 -8 15 C-8.99 15.33 -9.98 15.66 -11 16 C-11 15.34 -11 14.68 -11 14 C-11.66 14 -12.32 14 -13 14 C-12.34 16.64 -11.68 19.28 -11 22 C-12.32 22.33 -13.64 22.66 -15 23 C-15 22.01 -15 21.02 -15 20 C-15.66 20 -16.32 20 -17 20 C-16.86465006 12.55575305 -14.22311747 8.25516114 -9 3 C-5.62011288 0.85507164 -3.97046977 0 0 0 Z " fill="#DA546C" transform="translate(117,113)"/>
<path d="M0 0 C0.33 0 0.66 0 1 0 C0.91610118 16.34209187 0.82096825 32.68407376 0.71247292 49.0260191 C0.66235801 56.61392388 0.61591497 64.20181792 0.578125 71.78979492 C0.5451767 78.40372366 0.50532981 85.01756877 0.45720994 91.63140517 C0.43197312 95.13315421 0.41018357 98.63484796 0.39665604 102.13666344 C0.3814229 106.04653189 0.35078773 109.95619736 0.31884766 113.8659668 C0.31668747 115.02618347 0.31452728 116.18640015 0.31230164 117.3817749 C0.30113815 118.44883163 0.28997467 119.51588837 0.2784729 120.61528015 C0.27294214 121.53983851 0.26741138 122.46439688 0.26171303 123.41697216 C-0.03130847 126.30900504 -0.67739491 128.41326893 -2 131 C-5.79163027 133.52775351 -8.80874031 133.22443035 -13.1875 133.125 C-13.93708984 133.11597656 -14.68667969 133.10695313 -15.45898438 133.09765625 C-17.30612654 133.07412578 -19.15310412 133.03825561 -21 133 C-21 132.67 -21 132.34 -21 132 C-16.05 132 -11.1 132 -6 132 C-6 131.34 -6 130.68 -6 130 C-5.01 129.67 -4.02 129.34 -3 129 C-3.01160156 128.28972656 -3.02320313 127.57945312 -3.03515625 126.84765625 C-3.04417969 125.92855469 -3.05320312 125.00945312 -3.0625 124.0625 C-3.07410156 123.14597656 -3.08570313 122.22945313 -3.09765625 121.28515625 C-3 119 -3 119 -2 118 C-1.89430268 116.49933504 -1.85761158 114.99375029 -1.84851074 113.48939514 C-1.83599525 112.02760582 -1.83599525 112.02760582 -1.82322693 110.5362854 C-1.81904251 109.4583371 -1.81485809 108.38038879 -1.81054688 107.26977539 C-1.80225357 106.14142776 -1.79396027 105.01308014 -1.78541565 103.85054016 C-1.76796977 101.39126579 -1.75281553 98.93197437 -1.73963928 96.47267342 C-1.71868947 92.58642761 -1.69166055 88.70026746 -1.66296387 84.81407166 C-1.60314316 76.56358012 -1.55100143 68.31305009 -1.5 60.0625 C-1.44093003 50.50960197 -1.37862713 40.95675052 -1.30812073 31.40392876 C-1.28145699 27.5649588 -1.26069508 23.72598485 -1.2401123 19.88697815 C-1.2235147 17.54452308 -1.20664334 15.20206993 -1.18945312 12.85961914 C-1.18526871 11.78369507 -1.18108429 10.707771 -1.17677307 9.59924316 C-1.16842941 8.62189713 -1.16008575 7.64455109 -1.15148926 6.6375885 C-1.14633553 5.78530702 -1.14118179 4.93302553 -1.13587189 4.05491734 C-1 2 -1 2 0 0 Z " fill="#C95669" transform="translate(310,189)"/>
<path d="M0 0 C0.33 0 0.66 0 1 0 C1.05437607 1.58294782 1.09296271 3.16644256 1.125 4.75 C1.14820313 5.63171875 1.17140625 6.5134375 1.1953125 7.421875 C0.99139502 10.1135858 0.36551721 11.69904974 -1 14 C-0.01 14 0.98 14 2 14 C2.33 12.35 2.66 10.7 3 9 C3.66 9 4.32 9 5 9 C5 8.34 5 7.68 5 7 C5.66 7 6.32 7 7 7 C7 5.02 7 3.04 7 1 C7.66 1.33 8.32 1.66 9 2 C8.43294113 9.08823587 6.22615337 12.87063591 1.125 17.75 C-2.87830454 20.63237927 -5.89501722 22.27456297 -10.875 21.625 C-11.926875 21.315625 -11.926875 21.315625 -13 21 C-13 20.67 -13 20.34 -13 20 C-11.02 20 -9.04 20 -7 20 C-7 19.34 -7 18.68 -7 18 C-6.01 17.34 -5.02 16.68 -4 16 C-3.27617533 13.94074861 -3.27617533 13.94074861 -3 12 C-3.70125 12.515625 -4.4025 13.03125 -5.125 13.5625 C-8.60887535 15.30443767 -10.2983569 14.94693195 -14 14 C-11.60263957 12.70911362 -9.53309305 11.87860419 -6.875 11.1875 C-3.84158618 10.28881137 -3.84158618 10.28881137 -2.75 7.6875 C-2.37875 6.3571875 -2.37875 6.3571875 -2 5 C-1.33333333 3.33333333 -0.66666667 1.66666667 0 0 Z " fill="#DA6279" transform="translate(354,355)"/>
<path d="M0 0 C0.33 0 0.66 0 1 0 C0.85989315 4.47936476 0.71187647 8.95843553 0.5625 13.4375 C0.52318359 14.69755859 0.48386719 15.95761719 0.44335938 17.25585938 C-0.19964105 36.19964105 -0.19964105 36.19964105 -3 39 C-3.04975174 34.71331312 -3.0858847 30.42678303 -3.10986328 26.13989258 C-3.1198685 24.68413359 -3.13347696 23.22839443 -3.15087891 21.77270508 C-3.17537044 19.6700346 -3.18653794 17.56763176 -3.1953125 15.46484375 C-3.20578613 14.202771 -3.21625977 12.94069824 -3.22705078 11.64038086 C-2.66740576 2.66740576 -2.66740576 2.66740576 0 0 Z " fill="#DE778A" transform="translate(249,183)"/>
<path d="M0 0 C4.63973089 1.98845609 7.21457049 4.69997874 9.8125 9 C11.01320986 12.03337227 11.24284687 13.06236194 10 16 C10 15.01 10 14.02 10 13 C9.01 13 8.02 13 7 13 C6.67 12.01 6.34 11.02 6 10 C5.34 10 4.68 10 4 10 C4 8.02 4 6.04 4 4 C3.01 4 2.02 4 1 4 C1 6.97 1 9.94 1 13 C0.01 12.34 -0.98 11.68 -2 11 C-2 10.34 -2 9.68 -2 9 C-3.175625 8.566875 -3.175625 8.566875 -4.375 8.125 C-7 7 -7 7 -9 5 C-7.6078125 5.061875 -7.6078125 5.061875 -6.1875 5.125 C-2.84190281 5.27136339 -2.84190281 5.27136339 0 3 C0 2.01 0 1.02 0 0 Z " fill="#D96478" transform="translate(352,115)"/>
<path d="M0 0 C0.99 0.33 1.98 0.66 3 1 C2.34 1 1.68 1 1 1 C0.67 1.99 0.34 2.98 0 4 C-0.99 4 -1.98 4 -3 4 C-2.99476318 5.29212402 -2.98952637 6.58424805 -2.98413086 7.91552734 C-2.96606633 12.69758413 -2.95456264 17.47963789 -2.94506836 22.26171875 C-2.94003148 24.33366401 -2.93320175 26.4056057 -2.92456055 28.47753906 C-2.91246679 31.45118082 -2.90676533 34.42477569 -2.90234375 37.3984375 C-2.89718246 38.32868744 -2.89202118 39.25893738 -2.88670349 40.21737671 C-2.88662796 41.07811798 -2.88655243 41.93885925 -2.88647461 42.82568359 C-2.884254 43.58513275 -2.88203339 44.34458191 -2.87974548 45.12704468 C-3 47 -3 47 -4 49 C-4.66 49 -5.32 49 -6 49 C-6.09899561 42.96774061 -6.17152907 36.93595573 -6.21972656 30.90307617 C-6.23982199 28.85156007 -6.26710324 26.80010111 -6.30175781 24.7487793 C-6.35036669 21.79721975 -6.37298952 18.84641852 -6.390625 15.89453125 C-6.41127014 14.97976517 -6.43191528 14.06499908 -6.45318604 13.12251282 C-6.45467516 8.88117284 -6.38502797 6.61945952 -4.10058594 2.9440918 C-2 1 -2 1 0 0 Z " fill="#D7909B" transform="translate(158,180)"/>
<path d="M0 0 C3.16115776 1.36983503 3.9927092 1.9890638 6 5 C7.98 4.34 9.96 3.68 12 3 C11.67 5.31 11.34 7.62 11 10 C13.97 10.33 16.94 10.66 20 11 C19.67 11.66 19.34 12.32 19 13 C12.43154924 12.44335163 8.38328126 11.65565626 3.8125 6.5625 C2.29250711 4.41354454 1.06586285 2.39819141 0 0 Z " fill="#DA5B72" transform="translate(242,309)"/>
<path d="M0 0 C0.33 0 0.66 0 1 0 C1.05395478 1.62463842 1.09277195 3.24978541 1.125 4.875 C1.14820313 5.77992188 1.17140625 6.68484375 1.1953125 7.6171875 C1 10 1 10 -1 12 C-2.65204456 12.70211894 -4.31923769 13.36971413 -6 14 C-6.99 14.495 -6.99 14.495 -8 15 C-10.00800456 14.71887936 -12.01014051 14.38932033 -14 14 C-11.60263957 12.70911362 -9.53309305 11.87860419 -6.875 11.1875 C-3.84158618 10.28881137 -3.84158618 10.28881137 -2.75 7.6875 C-2.37875 6.3571875 -2.37875 6.3571875 -2 5 C-1.33333333 3.33333333 -0.66666667 1.66666667 0 0 Z " fill="#D8586F" transform="translate(354,355)"/>
<path d="M0 0 C0.66 0 1.32 0 2 0 C2.30109336 8.88225399 2.30109336 8.88225399 0 13 C-3.79163027 15.52775351 -6.80874031 15.22443035 -11.1875 15.125 C-11.93708984 15.11597656 -12.68667969 15.10695313 -13.45898438 15.09765625 C-15.30612654 15.07412578 -17.15310412 15.03825561 -19 15 C-19 14.67 -19 14.34 -19 14 C-14.05 14 -9.1 14 -4 14 C-4 13.34 -4 12.68 -4 12 C-3.01 11.67 -2.02 11.34 -1 11 C-1.01160156 10.28972656 -1.02320313 9.57945312 -1.03515625 8.84765625 C-1.04417969 7.92855469 -1.05320312 7.00945312 -1.0625 6.0625 C-1.07410156 5.14597656 -1.08570313 4.22945313 -1.09765625 3.28515625 C-1 1 -1 1 0 0 Z " fill="#DE8895" transform="translate(308,307)"/>
<path d="M0 0 C2.9375 0.75 2.9375 0.75 6 2 C6.875 4.125 6.875 4.125 7 6 C5.3125 7.5625 5.3125 7.5625 3 9 C0.25 8.6875 0.25 8.6875 -2 8 C-1.67 7.05125 -1.34 6.1025 -1 5.125 C0.10159191 2.22937548 0.10159191 2.22937548 0 0 Z " fill="#E1546B" transform="translate(346,112)"/>
<path d="M0 0 C2.31 0.33 4.62 0.66 7 1 C7 2.65 7 4.3 7 6 C7.66 6 8.32 6 9 6 C9.33 8.31 9.66 10.62 10 13 C8 12 8 12 7 9 C6.38125 8.38125 5.7625 7.7625 5.125 7.125 C2.91839587 4.91839587 1.50962238 2.71732028 0 0 Z " fill="#DB7488" transform="translate(222,282)"/>
<path d="M0 0 C0.99 0 1.98 0 3 0 C3.22786458 2.01822917 3.45572917 4.03645833 3.68359375 6.0546875 C3.91292961 8.07404316 3.91292961 8.07404316 5 10 C3.68 10.33 2.36 10.66 1 11 C1 10.01 1 9.02 1 8 C0.34 8 -0.32 8 -1 8 C-0.67 5.36 -0.34 2.72 0 0 Z " fill="#D8495D" transform="translate(101,125)"/>
<path d="M0 0 C0.99 0 1.98 0 3 0 C4 3 4 3 3 6 C3.99 5.67 4.98 5.34 6 5 C6 6.65 6 8.3 6 10 C4.68 10 3.36 10 2 10 C0.39644899 6.49223216 -0.22036864 3.85645121 0 0 Z " fill="#E1485E" transform="translate(353,119)"/>
<path d="M0 0 C4.05364337 2.84850615 6.24977746 5.3327399 8 10 C7.6875 12.375 7.6875 12.375 7 14 C7 13.01 7 12.02 7 11 C6.01 11 5.02 11 4 11 C3.67 10.01 3.34 9.02 3 8 C2.34 8 1.68 8 1 8 C0.67 5.36 0.34 2.72 0 0 Z " fill="#DB6C7F" transform="translate(355,117)"/>
<path d="M0 0 C2.27521866 2.16687491 4.15794162 4.45620509 6 7 C6.66 6.34 7.32 5.68 8 5 C8 6.98 8 8.96 8 11 C6.68 10.67 5.36 10.34 4 10 C4 9.34 4 8.68 4 8 C3.34 8 2.68 8 2 8 C0 6 0 6 -0.125 2.875 C-0.08375 1.92625 -0.0425 0.9775 0 0 Z " fill="#E3929C" transform="translate(238,217)"/>
<path d="M0 0 C0.66 0 1.32 0 2 0 C2.19456705 1.95764383 2.38044247 3.91615321 2.5625 5.875 C2.66691406 6.96554688 2.77132812 8.05609375 2.87890625 9.1796875 C3 12 3 12 2 14 C1.34 14 0.68 14 0 14 C0 9.38 0 4.76 0 0 Z " fill="#D87488" transform="translate(152,215)"/>
<path d="M0 0 C2.79872437 2.52788007 4.45773019 4.20411134 5 8 C5.66 8 6.32 8 7 8 C7 8.66 7 9.32 7 10 C5.35 10 3.7 10 2 10 C2 8.02 2 6.04 2 4 C1.34 4 0.68 4 0 4 C0 2.68 0 1.36 0 0 Z " fill="#DC6E82" transform="translate(231,207)"/>
<path d="M0 0 C0.66 0.33 1.32 0.66 2 1 C1.5317879 5.77576339 0.75668002 9.04476345 -2 13 C-2.93423645 9.98968256 -3.04449911 9.13349732 -2 6 C-1.34 6 -0.68 6 0 6 C0 4.02 0 2.04 0 0 Z " fill="#D67989" transform="translate(361,356)"/>
<path d="M0 0 C4.29 0.99 8.58 1.98 13 3 C12.67 3.66 12.34 4.32 12 5 C3.42857143 4.14285714 3.42857143 4.14285714 0 2 C0 1.34 0 0.68 0 0 Z " fill="#D16478" transform="translate(249,317)"/>
<path d="M0 0 C0.66 0 1.32 0 2 0 C2 2.64 2 5.28 2 8 C1.01 8.495 1.01 8.495 0 9 C-0.87890625 2.84765625 -0.87890625 2.84765625 -1 1 C-0.67 0.67 -0.34 0.34 0 0 Z " fill="#DA7D91" transform="translate(308,307)"/>
<path d="M0 0 C0.99 0.33 1.98 0.66 3 1 C2.34 1 1.68 1 1 1 C0.67 1.99 0.34 2.98 0 4 C-0.99 4 -1.98 4 -3 4 C-3 5.32 -3 6.64 -3 8 C-3.66 8 -4.32 8 -5 8 C-4.66275164 4.88045262 -4.3790035 3.3790035 -2.125 1.125 C-1.42375 0.75375 -0.7225 0.3825 0 0 Z " fill="#DC798F" transform="translate(158,180)"/>
<path d="M0 0 C1.32 0 2.64 0 4 0 C4 0.66 4 1.32 4 2 C0.21812119 3.83691257 -1.94568308 4.15837626 -6 3 C-6 2.67 -6 2.34 -6 2 C-4.02 2 -2.04 2 0 2 C0 1.34 0 0.68 0 0 Z " fill="#CE596F" transform="translate(347,373)"/>
<path d="M0 0 C-2.125 2.0625 -2.125 2.0625 -5 4 C-8.3125 3.75 -8.3125 3.75 -11 3 C-6.98213116 0.99106558 -4.56087444 -0.12002301 0 0 Z " fill="#DA6076" transform="translate(351,366)"/>
<path d="M0 0 C0.66 0.33 1.32 0.66 2 1 C1.67 2.98 1.34 4.96 1 7 C-0.65 5.35 -2.3 3.7 -4 2 C-2.68 2 -1.36 2 0 2 C0 1.34 0 0.68 0 0 Z " fill="#DB6A7C" transform="translate(221,275)"/>
<path d="M0 0 C2.5 2.25 2.5 2.25 5 5 C5 6.32 5 7.64 5 9 C2.525 8.01 2.525 8.01 0 7 C0.66 6.67 1.32 6.34 2 6 C1.34 4.02 0.68 2.04 0 0 Z " fill="#D96E87" transform="translate(225,198)"/>
<path d="M0 0 C2 2 2 2 2.125 4.625 C2.08375 5.40875 2.0425 6.1925 2 7 C1.01 7.33 0.02 7.66 -1 8 C-0.67 5.36 -0.34 2.72 0 0 Z " fill="#D87688" transform="translate(101,125)"/>
</svg>
