<?xml version="1.0" encoding="UTF-8"?>
<svg version="1.1" xmlns="http://www.w3.org/2000/svg" width="500" height="500" viewBox="38 198 464 182">
<path d="M0 0 C6.66705526 -0.34621207 6.66705526 -0.34621207 9.6953125 2.36328125 C10.2315625 3.31203125 10.7678125 4.26078125 11.3203125 5.23828125 C12.06312058 6.34729891 12.81311431 7.45153836 13.5703125 8.55078125 C14.1478125 9.43765625 14.7253125 10.32453125 15.3203125 11.23828125 C15.4440625 9.95953125 15.5678125 8.68078125 15.6953125 7.36328125 C16.0703125 3.48828125 16.0703125 3.48828125 18.3203125 1.23828125 C20.25976562 0.97949219 20.25976562 0.97949219 22.6015625 0.97265625 C23.44332031 0.97007812 24.28507812 0.9675 25.15234375 0.96484375 C26.47298828 0.97644531 26.47298828 0.97644531 27.8203125 0.98828125 C28.70074219 0.98054687 29.58117187 0.9728125 30.48828125 0.96484375 C31.33003906 0.96742188 32.17179687 0.97 33.0390625 0.97265625 C34.19825195 0.97604004 34.19825195 0.97604004 35.38085938 0.97949219 C37.3203125 1.23828125 37.3203125 1.23828125 39.3203125 3.23828125 C39.56323242 5.99707031 39.56323242 5.99707031 39.55078125 9.50390625 C39.54884766 10.7878125 39.54691406 12.07171875 39.54492188 13.39453125 C39.53561646 14.40580078 39.53561646 14.40580078 39.52612305 15.4375 C39.50825489 17.43873371 39.50684817 19.44009301 39.50585938 21.44140625 C39.46726531 30.08647652 39.04864896 38.62563978 38.3203125 47.23828125 C35.04964684 47.32535017 31.77927885 47.37869366 28.5078125 47.42578125 C27.1146582 47.46348633 27.1146582 47.46348633 25.69335938 47.50195312 C24.80068359 47.51162109 23.90800781 47.52128906 22.98828125 47.53125 C22.16610107 47.54696045 21.3439209 47.5626709 20.49682617 47.57885742 C17.10038225 47.04738919 15.92721843 45.03666173 13.93359375 42.4140625 C12.72916667 40.68880208 11.52473958 38.96354167 10.3203125 37.23828125 C9.6603125 40.53828125 9.0003125 43.83828125 8.3203125 47.23828125 C1.7203125 47.23828125 -4.8796875 47.23828125 -11.6796875 47.23828125 C-12.82975855 44.93813914 -12.80639235 43.63712357 -12.80908203 41.07983398 C-12.81223419 40.2223204 -12.81538635 39.36480682 -12.81863403 38.48130798 C-12.8166098 37.5541951 -12.81458557 36.62708221 -12.8125 35.671875 C-12.81345673 34.72264664 -12.81441345 33.77341827 -12.81539917 32.79542542 C-12.8160803 30.78720025 -12.81423069 28.7789729 -12.81005859 26.77075195 C-12.80470351 23.6850087 -12.8100089 20.59941062 -12.81640625 17.51367188 C-12.81574557 15.56640593 -12.81446463 13.61914007 -12.8125 11.671875 C-12.81452423 10.74273788 -12.81654846 9.81360077 -12.81863403 8.85630798 C-12.81548187 8.00194656 -12.81232971 7.14758514 -12.80908203 6.26733398 C-12.80788864 5.13387794 -12.80788864 5.13387794 -12.80667114 3.9775238 C-12.6796875 2.23828125 -12.6796875 2.23828125 -11.6796875 1.23828125 C-7.78603747 0.68204553 -3.91508632 0.3481345 0 0 Z " fill="#E04A63" transform="translate(94.6796875,227.76171875)"/>
<path d="M0 0 C3.96 0 7.92 0 12 0 C12 9.24 12 18.48 12 28 C12.66 28 13.32 28 14 28 C13.95359375 27.41992188 13.9071875 26.83984375 13.859375 26.2421875 C13.59870319 20.60050472 14.11642265 17.40838511 18 13 C22.34769693 9.27340263 26.58133831 9.72602272 32 10 C32.99 10 33.98 10 35 10 C38.33333333 10 41.66666667 10 45 10 C45.04962653 14.03845412 45.08582632 18.07678887 45.10986328 22.11547852 C45.11988926 23.48790583 45.13351356 24.86031195 45.15087891 26.23266602 C45.17527627 28.21100527 45.18544484 30.18950367 45.1953125 32.16796875 C45.20578613 33.35672607 45.21625977 34.5454834 45.22705078 35.77026367 C44.90509944 40.349935 44.03315779 43.02268858 40.6875 46.1875 C35.18986503 49.89520731 30.54351917 50.72826542 24 50 C20.16246562 48.98495251 16.85861022 47.85861022 14 45 C14 44.01 14 43.02 14 42 C16 40.3125 16 40.3125 18 39 C17.38722388 36.03824877 16.74627478 34.61941217 15 32 C14.67 34.31 14.34 36.62 14 39 C9.16770434 39.0947509 4.74241966 39.0374043 0 38 C-0.33 38.33 -0.66 38.66 -1 39 C-6.60309275 39.61339121 -11.29435593 39.36117434 -16 36 C-19.81677027 30.91097297 -19.80560129 25.10840541 -19 19 C-17.81048825 15.57176614 -16.30270089 12.82623735 -13.15234375 10.828125 C-10.72382109 9.89373879 -8.90614069 9.7653429 -6.3125 9.8125 C-5.13107422 9.82216797 -5.13107422 9.82216797 -3.92578125 9.83203125 C-2 10 -2 10 -1 11 C-0.67 7.37 -0.34 3.74 0 0 Z M-5 20 C-7.33391203 22.78114056 -7.33391203 22.78114056 -6.625 25.6875 C-6.41875 26.450625 -6.2125 27.21375 -6 28 C-4.10820797 28.6814823 -4.10820797 28.6814823 -2 29 C0.2491908 27.17296773 0.2491908 27.17296773 0.25 24.5 C0.2491908 21.82703227 0.2491908 21.82703227 -2 20 C-2.99 20 -3.98 20 -5 20 Z M29 20 C27.35444301 21.22809091 27.35444301 21.22809091 26 23 C25.92357291 25.11149645 25.92357291 25.11149645 27 27 C28.9837767 28.28436734 28.9837767 28.28436734 31 29 C31.99 28.34 32.98 27.68 34 27 C34.25030977 24.41619823 34.25030977 24.41619823 34 22 C31.525 21.01 31.525 21.01 29 20 Z M23 38 C23.83447997 40.25355766 23.83447997 40.25355766 26.375 40.8125 C27.674375 40.9053125 27.674375 40.9053125 29 41 C29.99 40.01 30.98 39.02 32 38 C29.03 38 26.06 38 23 38 Z " fill="#DF4D66" transform="translate(246,228)"/>
<path d="M0 0 C0.69451767 -0.0049649 1.38903534 -0.00992981 2.104599 -0.01504517 C4.4072264 -0.0296756 6.70978488 -0.03647077 9.01245117 -0.04199219 C10.61187238 -0.04774361 12.21129356 -0.05350134 13.81071472 -0.05926514 C17.16743288 -0.06977811 20.52412707 -0.0756186 23.88085938 -0.07910156 C28.17837341 -0.08458218 32.47556995 -0.10859949 36.7729845 -0.13707352 C40.07843443 -0.15571589 43.3838082 -0.16090638 46.68930626 -0.16243744 C48.27331971 -0.16546169 49.85733188 -0.17348257 51.44129372 -0.18662262 C53.66032519 -0.2037145 55.87858531 -0.20179546 58.09765625 -0.1953125 C59.35959305 -0.19895813 60.62152985 -0.20260376 61.92170715 -0.20635986 C65.50613965 0.19025811 67.38801059 0.99865773 70.24291992 3.16113281 C71.71290385 6.10110068 71.4074873 9.07722233 71.41992188 12.30126953 C71.42649307 13.03640778 71.43306427 13.77154602 71.43983459 14.52896118 C71.45957563 16.96624855 71.47123112 19.40347431 71.48120117 21.84082031 C71.4852767 22.6724683 71.48935223 23.50411629 71.49355125 24.36096573 C71.51441414 28.7616374 71.52871563 33.16227784 71.53808594 37.56298828 C71.54915876 42.11178681 71.58356773 46.66009726 71.62325764 51.20872307 C71.6493806 54.7037142 71.65777384 58.19858819 71.66136742 61.69366837 C71.66624358 63.37063015 71.67788683 65.04758635 71.69640541 66.72445297 C71.720709 69.0707667 71.71984873 71.41580643 71.71289062 73.76220703 C71.72570068 74.45533997 71.73851074 75.1484729 71.75170898 75.86260986 C71.71527993 79.23114818 71.4604458 80.88700192 69.33854675 83.56106567 C65.57458296 86.43495271 63.11519276 86.30174908 58.39404297 86.33813477 C57.68977173 86.34470596 56.98550049 86.35127716 56.2598877 86.35804749 C53.92480364 86.37778832 51.58978393 86.38944496 49.25463867 86.39941406 C48.05868545 86.40552735 48.05868545 86.40552735 46.83857155 86.41176414 C42.61829512 86.43262857 38.39805124 86.44692846 34.17773438 86.45629883 C29.81959474 86.46736216 25.46196586 86.50175964 21.10400677 86.54147053 C17.75223342 86.56762265 14.400582 86.5759894 11.04871559 86.57958031 C9.442356 86.5844502 7.836002 86.59607575 6.22974205 86.6146183 C3.97941063 86.63898042 1.73040353 86.63805084 -0.52001953 86.63110352 C-2.43957207 86.63990288 -2.43957207 86.63990288 -4.39790344 86.64888 C-8.3324992 86.07758286 -9.96487309 84.93407805 -12.75708008 82.16113281 C-14.23692532 79.20144233 -13.9171492 76.52370994 -13.94995117 73.22045898 C-13.95812866 72.50643417 -13.96630615 71.79240936 -13.97473145 71.05674744 C-13.99958309 68.68920736 -14.01610088 66.32172724 -14.03051758 63.95410156 C-14.03584126 63.14576685 -14.04116493 62.33743214 -14.04664993 61.50460243 C-14.07338071 57.22597832 -14.09275568 52.94738338 -14.10717773 48.66870117 C-14.12382444 44.24991512 -14.16860176 39.83187509 -14.21954918 35.41337109 C-14.25321013 32.01527554 -14.26475383 28.61735731 -14.27040482 25.21911049 C-14.2771207 23.59039929 -14.29235172 21.9616999 -14.31629562 20.33315086 C-14.34792759 18.05147957 -14.3479882 15.77182335 -14.34057617 13.48999023 C-14.34866302 12.19252365 -14.35674988 10.89505707 -14.36508179 9.55827332 C-13.60223771 5.29596866 -12.06803344 3.85289991 -8.75708008 1.16113281 C-5.8380693 -0.29837258 -3.26000911 0.01767246 0 0 Z M-8.75708008 6.16113281 C-9.06532666 9.34603951 -9.06532666 9.34603951 -9.01586914 13.14941406 C-9.01937378 13.86825775 -9.02287842 14.58710144 -9.02648926 15.32772827 C-9.03530973 17.70979397 -9.02945644 20.09156396 -9.02270508 22.47363281 C-9.02405164 24.12508196 -9.0259921 25.77653073 -9.02850342 27.42797852 C-9.0314551 30.89147714 -9.02715565 34.35487271 -9.01782227 37.81835938 C-9.00642766 42.26408592 -9.0129869 46.70957101 -9.02496719 51.1552887 C-9.03218462 54.56614002 -9.02989842 57.97693384 -9.02471161 61.38778687 C-9.02337478 63.02729318 -9.02502398 64.66680466 -9.02967072 66.30630493 C-9.03473408 68.59529507 -9.0270287 70.88389089 -9.01586914 73.17285156 C-9.01427795 74.47697998 -9.01268677 75.7811084 -9.01104736 77.12475586 C-9.07687826 80.271807 -9.07687826 80.271807 -6.75708008 82.16113281 C-3.69392915 82.4621815 -3.69392915 82.4621815 -0.04418945 82.40405273 C0.64539352 82.40595108 1.3349765 82.40784943 2.04545593 82.4098053 C4.33014207 82.41351696 6.61451192 82.40280344 8.89916992 82.39160156 C10.48335737 82.39040985 12.06754553 82.38995658 13.6517334 82.39021301 C16.97400324 82.38864747 20.29616544 82.38035252 23.6184082 82.36694336 C27.88247834 82.34995341 32.14643008 82.34612899 36.41053009 82.34688854 C39.68240494 82.34661694 42.95425378 82.34113731 46.22612 82.3338871 C47.79863793 82.33069914 49.37115882 82.32873273 50.94367981 82.32799339 C53.13918098 82.32583118 55.33455527 82.31708953 57.5300293 82.30639648 C59.40627991 82.30067879 59.40627991 82.30067879 61.32043457 82.29484558 C64.17909431 82.36215653 64.17909431 82.36215653 66.24291992 81.16113281 C67.38920954 77.72226396 67.36996382 75.07008846 67.37231445 71.44238281 C67.37406677 70.76401367 67.37581909 70.08564453 67.37762451 69.38671875 C67.38202496 67.14483073 67.37911139 64.90302163 67.37573242 62.66113281 C67.37640598 61.10318995 67.37737644 59.54524719 67.37863159 57.98730469 C67.38010611 54.72232055 67.37796187 51.45736377 67.37329102 48.19238281 C67.36759387 44.00579653 67.37087419 39.81927436 67.37686348 35.63269043 C67.3804757 32.41568518 67.37932746 29.19869516 67.37673569 25.98168945 C67.37606825 24.43790682 67.37688846 22.89412282 67.37921524 21.3503418 C67.38175257 19.19348486 67.37788589 17.03673199 67.37231445 14.87988281 C67.37151886 13.65205078 67.37072327 12.42421875 67.36990356 11.15917969 C67.37876925 8.1090165 67.37876925 8.1090165 66.24291992 5.16113281 C63.33284406 3.70609488 60.78042333 4.02577441 57.5300293 4.01586914 C56.49565483 4.01083122 56.49565483 4.01083122 55.44038391 4.00569153 C53.15579438 3.99617485 50.87127805 3.99423819 48.58666992 3.99316406 C47.00248178 3.98995244 45.41829395 3.98658844 43.83410645 3.983078 C40.51187451 3.97708527 37.1896686 3.9752383 33.86743164 3.97583008 C29.60332251 3.97593182 25.33937947 3.96226841 21.07530975 3.94505787 C17.8034386 3.9339594 14.5316079 3.93191019 11.25971985 3.9324398 C9.68719408 3.93125686 8.11466735 3.92681758 6.54216003 3.91910744 C4.34659047 3.90934892 2.15138554 3.91216871 -0.04418945 3.91821289 C-1.92044006 3.91607536 -1.92044006 3.91607536 -3.83459473 3.91389465 C-6.88115821 3.85522253 -6.88115821 3.85522253 -8.75708008 6.16113281 Z " fill="#D56C7C" transform="translate(78.757080078125,206.8388671875)"/>
<path d="M0 0 C2.45056568 1.71539597 3.92988486 3.22037006 5.5 5.75 C6.098125 4.96625 6.69625 4.1825 7.3125 3.375 C9.78017438 0.41379074 11.31502507 -1.11833612 15.20703125 -1.55078125 C21.12974439 -1.57313111 25.50386155 -1.58075897 30.5 1.75 C29.90072174 5.10595828 28.65377564 7.12801226 26.5 9.75 C27.325 10.430625 28.15 11.11125 29 11.8125 C31.5 14.75 31.5 14.75 32.125 18.25 C31.34589045 22.61301349 29.93408422 24.03467759 26.5 26.75 C19.34016113 29.13661296 13.2429008 27.69235671 6.5 24.75 C6.95822468 21.28058454 7.39131683 18.07604951 8.5 14.75 C8.005 14.255 8.005 14.255 7.5 13.75 C7.17 14.74 6.84 15.73 6.5 16.75 C5.51 17.08 4.52 17.41 3.5 17.75 C4.16 18.08 4.82 18.41 5.5 18.75 C4.51530162 22.06216727 3.87853825 23.48502323 1 25.5 C-4.52714174 28.26357087 -9.83559833 28.97146722 -15.8671875 26.9609375 C-19.50076401 25.21735317 -21.20927954 24.18608069 -23.5 20.75 C-25.0851556 14.15370736 -24.5827167 8.41954847 -21.1875 2.4375 C-15.79113342 -2.95886658 -6.68801469 -2.38857667 0 0 Z M-10.5 7.75 C-10.83 8.41 -11.16 9.07 -11.5 9.75 C-9.85 9.75 -8.2 9.75 -6.5 9.75 C-6.83 9.09 -7.16 8.43 -7.5 7.75 C-8.49 7.75 -9.48 7.75 -10.5 7.75 Z M-11.5 16.75 C-11.17 17.41 -10.84 18.07 -10.5 18.75 C-8.85 18.42 -7.2 18.09 -5.5 17.75 C-5.5 17.42 -5.5 17.09 -5.5 16.75 C-7.48 16.75 -9.46 16.75 -11.5 16.75 Z " fill="#DE4D65" transform="translate(378.5,239.25)"/>
<path d="M0 0 C3.96 0 7.92 0 12 0 C12.33 5.94 12.66 11.88 13 18 C13.99 17.67 14.98 17.34 16 17 C16.33 11.39 16.66 5.78 17 0 C20.96 0 24.92 0 29 0 C30.19148936 19.34042553 30.19148936 19.34042553 30 29 C25.42380243 29.07756267 21.48677582 28.89735516 17 28 C16.01 28.33 15.02 28.66 14 29 C5.14798206 29.42152466 5.14798206 29.42152466 2 27 C-0.00739131 23.79501216 -0.23692573 21.32331538 -0.1953125 17.578125 C-0.18564453 16.04091797 -0.18564453 16.04091797 -0.17578125 14.47265625 C-0.15902344 13.40917969 -0.14226562 12.34570312 -0.125 11.25 C-0.11597656 10.17105469 -0.10695312 9.09210938 -0.09765625 7.98046875 C-0.0741142 5.32021751 -0.03824397 2.66008051 0 0 Z " fill="#DF566D" transform="translate(196,238)"/>
<path d="M0 0 C3.54405871 2.7660946 5.20880349 5.73663398 6.5625 10 C6.84810981 12.45071643 6.76888717 14.52335391 6.5625 17 C5.5725 17.33 4.5825 17.66 3.5625 18 C3.8925 18.99 4.2225 19.98 4.5625 21 C4.0625 23 4.0625 23 2.5625 25 C-2.97477072 28.23007459 -8.09790857 28.75446377 -14.4375 28 C-18.26297135 26.72484288 -20.04554136 25.41258804 -22.8125 22.5 C-25.09179258 17.59075444 -25.21411125 13.32533427 -24.4375 8 C-22.69550827 4.24801781 -21.18475276 2.54677031 -17.875 0.125 C-11.86529695 -1.84181191 -6.05811323 -1.76236021 0 0 Z M-11.4375 8 C-11.7675 8.66 -12.0975 9.32 -12.4375 10 C-10.7875 10 -9.1375 10 -7.4375 10 C-7.4375 9.34 -7.4375 8.68 -7.4375 8 C-8.7575 8 -10.0775 8 -11.4375 8 Z M-12.4375 17 C-11.7775 17.66 -11.1175 18.32 -10.4375 19 C-8.32929203 18.6814823 -8.32929203 18.6814823 -6.4375 18 C-6.4375 17.67 -6.4375 17.34 -6.4375 17 C-8.4175 17 -10.3975 17 -12.4375 17 Z " fill="#DE536A" transform="translate(317.4375,239)"/>
<path d="M0 0 C10 0 10 0 12 1 C12.99 0.67 13.98 0.34 15 0 C19.13620298 -0.39610047 22.77024858 -0.64561949 26.5 1.3125 C29.18961074 4.33831208 29.11997113 7.24499444 29.09765625 11.10546875 C29.09443359 12.08837891 29.09121094 13.07128906 29.08789062 14.08398438 C29.07951172 15.10814453 29.07113281 16.13230469 29.0625 17.1875 C29.05798828 18.22326172 29.05347656 19.25902344 29.04882812 20.32617188 C29.03704026 22.8841392 29.01910482 25.44207686 29 28 C25.04 28 21.08 28 17 28 C17 22.39 17 16.78 17 11 C15.35 11.33 13.7 11.66 12 12 C12 17.28 12 22.56 12 28 C8.04 28 4.08 28 0 28 C0 18.76 0 9.52 0 0 Z " fill="#DB5169" transform="translate(165,238)"/>
<path d="M0 0 C4.66666667 0 9.33333333 0 14 0 C14.81597656 -0.03480469 15.63195312 -0.06960937 16.47265625 -0.10546875 C17.32730469 -0.13253906 18.18195313 -0.15960938 19.0625 -0.1875 C20.34833984 -0.23970703 20.34833984 -0.23970703 21.66015625 -0.29296875 C24 0 24 0 25.74609375 1.32421875 C28.098983 4.46873429 28.11950341 7.32591092 28.09765625 11.10546875 C28.09443359 12.08837891 28.09121094 13.07128906 28.08789062 14.08398438 C28.07951172 15.10814453 28.07113281 16.13230469 28.0625 17.1875 C28.05798828 18.22326172 28.05347656 19.25902344 28.04882812 20.32617188 C28.03704026 22.8841392 28.01910482 25.44207686 28 28 C24.04 28 20.08 28 16 28 C16 22.39 16 16.78 16 11 C14.35 11.33 12.7 11.66 11 12 C11 17.28 11 22.56 11 28 C7.37 28 3.74 28 0 28 C0 18.76 0 9.52 0 0 Z " fill="#DC4F68" transform="translate(325,238)"/>
<path d="M0 0 C3.63 0 7.26 0 11 0 C11 2.64 11 5.28 11 8 C11.804375 7.979375 12.60875 7.95875 13.4375 7.9375 C16 8 16 8 17 9 C17.14115161 11.67058851 17.04247107 14.32432238 17 17 C15.02 17 13.04 17 11 17 C11.33 19.64 11.66 22.28 12 25 C13.65 25 15.3 25 17 25 C17.33 28.3 17.66 31.6 18 35 C13.63764602 37.25153754 8.81746841 38.01692535 4 37 C1.76171875 35.45703125 1.76171875 35.45703125 0 33 C-0.39698084 30.32181764 -0.60463113 27.9884607 -0.625 25.3125 C-0.67104942 22.85115869 -0.79249552 20.4574459 -1 18 C-1.66 17.67 -2.32 17.34 -3 17 C-3 14.03 -3 11.06 -3 8 C-2.01 8 -1.02 8 0 8 C0 5.36 0 2.72 0 0 Z " fill="#DC4C65" transform="translate(413,230)"/>
<path d="M0 0 C0.69480972 -0.00511093 1.38961945 -0.01022186 2.10548401 -0.01548767 C4.39731512 -0.029363 6.68884482 -0.02842851 8.98071289 -0.02612305 C10.57727673 -0.0300111 12.17383953 -0.03434599 13.770401 -0.03910828 C17.11519729 -0.04656603 20.45988802 -0.04628244 23.8046875 -0.04101562 C28.08647907 -0.03522132 32.36783802 -0.05215294 36.64955807 -0.0753603 C39.94644183 -0.09010726 43.24322162 -0.09096805 46.54013252 -0.08785057 C48.11855488 -0.08836329 49.69698314 -0.09359185 51.27537346 -0.10366249 C53.4846478 -0.11602872 55.69308239 -0.10923494 57.90234375 -0.09765625 C59.78620033 -0.09860039 59.78620033 -0.09860039 61.70811462 -0.0995636 C65.28151559 0.30471203 67.17829433 1.10092677 70.01586914 3.2746582 C70.82836914 5.4621582 70.82836914 5.4621582 71.01586914 7.2746582 C69.36586914 7.6046582 67.71586914 7.9346582 66.01586914 8.2746582 C66.01586914 7.2846582 66.01586914 6.2946582 66.01586914 5.2746582 C56.51512589 5.25153336 47.01439226 5.2337424 37.51362705 5.22284603 C33.1024991 5.21761751 28.69139034 5.21052043 24.28027344 5.19921875 C20.02685799 5.18838876 15.77346105 5.18238113 11.52003288 5.17978096 C9.89365281 5.17792691 8.2672738 5.17430668 6.64090157 5.16892815 C4.37076721 5.16171622 2.10071029 5.16066732 -0.16943359 5.16113281 C-1.46405014 5.1589122 -2.75866669 5.15669159 -4.09251404 5.15440369 C-6.87855469 4.94337708 -6.87855469 4.94337708 -7.98413086 6.2746582 C-8.1083382 8.57448842 -8.16217539 10.87813206 -8.18945312 13.18115234 C-8.19935272 13.90306259 -8.20925232 14.62497284 -8.2194519 15.36875916 C-8.25115385 17.76574371 -8.27585845 20.16274812 -8.30053711 22.55981445 C-8.32109915 24.2174889 -8.34209541 25.87515801 -8.36351013 27.53282166 C-8.41880836 31.90414116 -8.4681833 36.27550858 -8.51635742 40.64691162 C-8.56651601 45.10425094 -8.62223146 49.56152034 -8.67749023 54.01879883 C-8.78516654 62.77069291 -8.88659031 71.52264532 -8.98413086 80.2746582 C-9.31413086 80.2746582 -9.64413086 80.2746582 -9.98413086 80.2746582 C-9.99221771 79.39182663 -10.00030457 78.50899506 -10.00863647 77.59941101 C-10.08652906 69.2855974 -10.17380351 60.9719469 -10.27165794 52.65834332 C-10.32163568 48.3840784 -10.36796551 44.10983837 -10.40600586 39.83544922 C-10.44284012 35.71157539 -10.48919485 31.58790908 -10.54219437 27.46421242 C-10.56074824 25.88976489 -10.57585254 24.31527285 -10.58747482 22.7407589 C-10.60432052 20.53789323 -10.63335063 18.33550386 -10.6652832 16.1328125 C-10.67860687 14.87816696 -10.69193054 13.62352142 -10.70565796 12.33085632 C-10.75494363 9.10178626 -10.75494363 9.10178626 -12.98413086 6.2746582 C-12.06769599 3.98357103 -11.40891373 2.56334157 -9.34251404 1.15901184 C-6.15207695 -0.03734788 -3.40709733 0.01250715 0 0 Z " fill="#D96D7F" transform="translate(78.984130859375,206.725341796875)"/>
<path d="M0 0 C2.31 0 4.62 0 7 0 C7.88774347 7.70103844 8.28782899 15.38017805 8.5625 23.125 C8.60568359 24.27226562 8.64886719 25.41953125 8.69335938 26.6015625 C8.79833646 29.40095143 8.90049465 32.20041215 9 35 C4.97620653 35.03940067 1.05735135 34.99167401 -2.9375 34.5 C-4.09572266 34.36078125 -4.09572266 34.36078125 -5.27734375 34.21875 C-5.84582031 34.1465625 -6.41429687 34.074375 -7 34 C-7 32.35 -7 30.7 -7 29 C-5.02 28.67 -3.04 28.34 -1 28 C-1 24.37 -1 20.74 -1 17 C-2.65 17 -4.3 17 -6 17 C-5.1875 14.0625 -5.1875 14.0625 -4 11 C-3.01 10.67 -2.02 10.34 -1 10 C-1.020625 8.72125 -1.04125 7.4425 -1.0625 6.125 C-1.125 2.25 -1.125 2.25 0 0 Z " fill="#E04861" transform="translate(249,230)"/>
<path d="M0 0 C0.99 0 1.98 0 3 0 C3 24.42 3 48.84 3 74 C1.68 73.34 0.36 72.68 -1 72 C-1.02312524 62.76002448 -1.04091601 53.52005886 -1.05181217 44.28006077 C-1.05704061 39.99000085 -1.06413753 35.69996067 -1.07543945 31.40991211 C-1.08626975 27.273206 -1.09227714 23.13651892 -1.09487724 18.99979973 C-1.09673124 17.41807696 -1.10035136 15.83635529 -1.10573006 14.25464058 C-1.1129424 12.04677162 -1.11399086 9.83898227 -1.11352539 7.63110352 C-1.115746 6.37201675 -1.11796661 5.11292999 -1.12025452 3.81568909 C-1 1 -1 1 0 0 Z " fill="#D03E55" transform="translate(147,214)"/>
<path d="M0 0 C3 1 3 1 4 3 C4.66 2.67 5.32 2.34 6 2 C6.33 3.98 6.66 5.96 7 8 C5.02 8 3.04 8 1 8 C1.99 9.485 1.99 9.485 3 11 C3.66 11 4.32 11 5 11 C5 12.98 5 14.96 5 17 C-0.61522166 19.92968087 -5.65957136 20.89252835 -12 20 C-14.35953094 17.64046906 -14.49141413 16.22104383 -15 13 C-13.35 11.68 -11.7 10.36 -10 9 C-9.67 9.99 -9.34 10.98 -9 12 C-7.02 11.34 -5.04 10.68 -3 10 C-3.804375 9.38125 -4.60875 8.7625 -5.4375 8.125 C-8 6 -8 6 -9 4 C-7.88625 3.71125 -6.7725 3.4225 -5.625 3.125 C-1.99708908 2.30758671 -1.99708908 2.30758671 0 0 Z " fill="#DD4861" transform="translate(315,247)"/>
<path d="M0 0 C1.640625 0.8125 1.640625 0.8125 3.890625 2.3125 C3.3292932 5.56822446 2.57982884 7.33098138 -0.109375 9.3125 C-2.58984375 9.16796875 -2.58984375 9.16796875 -5.296875 8.5 C-6.19792969 8.28730469 -7.09898437 8.07460937 -8.02734375 7.85546875 C-8.71441406 7.67628906 -9.40148437 7.49710938 -10.109375 7.3125 C-10.769375 9.6225 -11.429375 11.9325 -12.109375 14.3125 C-13.429375 14.3125 -14.749375 14.3125 -16.109375 14.3125 C-16.439375 13.6525 -16.769375 12.9925 -17.109375 12.3125 C-17.769375 12.3125 -18.429375 12.3125 -19.109375 12.3125 C-20.572333 9.386584 -20.55460609 7.55632653 -20.109375 4.3125 C-15.13546351 -2.04305357 -7.48598039 -2.43987509 0 0 Z " fill="#DD4A63" transform="translate(405.109375,238.6875)"/>
<path d="M0 0 C1.66611905 -0.042721 3.33382885 -0.04063832 5 0 C6 1 6 1 6.11352539 3.31665039 C6.10828857 4.31688232 6.10305176 5.31711426 6.09765625 6.34765625 C6.09443359 7.42724609 6.09121094 8.50683594 6.08789062 9.61914062 C6.07951172 10.75544922 6.07113281 11.89175781 6.0625 13.0625 C6.05798828 14.20267578 6.05347656 15.34285156 6.04882812 16.51757812 C6.03699747 19.34510351 6.0205141 22.1725264 6 25 C3.03 25 0.06 25 -3 25 C-3.0270203 22.24993392 -3.04684883 19.50013454 -3.0625 16.75 C-3.07087891 15.97269531 -3.07925781 15.19539062 -3.08789062 14.39453125 C-3.09111328 13.64042969 -3.09433594 12.88632813 -3.09765625 12.109375 C-3.10289307 11.41811523 -3.10812988 10.72685547 -3.11352539 10.01464844 C-2.99437971 7.90026102 -2.57618237 6.03358485 -2 4 C-1.34 4 -0.68 4 0 4 C0 2.68 0 1.36 0 0 Z " fill="#DD4B63" transform="translate(187,240)"/>
<path d="M0 0 C2.33299825 0.03954234 4.66708189 0.04401732 7 0 C6.01 0.66 5.02 1.32 4 2 C4.66 2.33 5.32 2.66 6 3 C5.01530162 6.31216727 4.37853825 7.73502323 1.5 9.75 C-4.05809785 12.52904892 -9.27583327 13.1307701 -15.3671875 11.28125 C-18.87625472 9.68738797 -20.62179093 8.69338329 -22.5 5.25 C-22.665 4.5075 -22.83 3.765 -23 3 C-22.34 2.34 -21.68 1.68 -21 1 C-21 2.32 -21 3.64 -21 5 C-20.01 5.33 -19.02 5.66 -18 6 C-17.67 6.66 -17.34 7.32 -17 8 C-15.68 8 -14.36 8 -13 8 C-12.67 5.36 -12.34 2.72 -12 0 C-10.56359829 -0.19573608 -9.12580496 -0.38127816 -7.6875 -0.5625 C-6.88699219 -0.66691406 -6.08648437 -0.77132812 -5.26171875 -0.87890625 C-3 -1 -3 -1 0 0 Z M-11 1 C-10.67 1.66 -10.34 2.32 -10 3 C-8.35 2.67 -6.7 2.34 -5 2 C-5 1.67 -5 1.34 -5 1 C-6.98 1 -8.96 1 -11 1 Z " fill="#D4697C" transform="translate(378,255)"/>
<path d="M0 0 C1.32 0.66 2.64 1.32 4 2 C3.835 2.721875 3.67 3.44375 3.5 4.1875 C3.02412881 6.86427545 2.922557 9.28949487 3 12 C-2.21064329 14.68936428 -7.76211381 14.9274078 -13.359375 13.32421875 C-15.26401998 12.6116654 -17.1361535 11.81331484 -19 11 C-18.125 4.25 -18.125 4.25 -17 2 C-12.25 3.875 -12.25 3.875 -10 5 C-7.67085177 5.36141955 -5.33746522 5.69699525 -3 6 C-2.01 4.02 -1.02 2.04 0 0 Z " fill="#DD4860" transform="translate(404,253)"/>
<path d="M0 0 C0.33 0.66 0.66 1.32 1 2 C24.76 2 48.52 2 73 2 C73 2.33 73 2.66 73 3 C72.1127272 3.01030746 71.22545441 3.02061493 70.31129456 3.03123474 C61.96748429 3.12903425 53.62374785 3.23152315 45.28006077 3.33933926 C40.9900379 3.39460736 36.70000826 3.44803343 32.40991211 3.49731445 C28.27314564 3.54490086 24.13646464 3.59724132 19.99979973 3.65294075 C18.41810153 3.67339034 16.83637988 3.69209903 15.25464058 3.70907402 C13.04670822 3.7330607 10.8389388 3.76312256 8.63110352 3.79467773 C7.37201675 3.81022202 6.11292999 3.8257663 4.81568909 3.84178162 C2.09702459 3.68086804 2.09702459 3.68086804 1 5 C0.87579266 7.29983022 0.82195547 9.60347386 0.79467773 11.90649414 C0.78477814 12.62840439 0.77487854 13.35031464 0.76467896 14.09410095 C0.73297701 16.49108551 0.70827241 18.88808992 0.68359375 21.28515625 C0.66303171 22.94283069 0.64203545 24.6004998 0.62062073 26.25816345 C0.5653225 30.62948295 0.51594756 35.00085037 0.46777344 39.37225342 C0.41761484 43.82959274 0.3618994 48.28686213 0.30664062 52.74414062 C0.19896432 61.4960347 0.09754055 70.24798712 0 79 C-0.33 79 -0.66 79 -1 79 C-1.00808685 78.11716843 -1.01617371 77.23433685 -1.02450562 76.32475281 C-1.1023982 68.01093919 -1.18967265 59.69728869 -1.28752708 51.38368511 C-1.33750482 47.10942019 -1.38383465 42.83518017 -1.421875 38.56079102 C-1.45870926 34.43691718 -1.50506399 30.31325087 -1.55806351 26.18955421 C-1.57661738 24.61510668 -1.59172168 23.04061465 -1.60334396 21.46610069 C-1.62018966 19.26323502 -1.64921977 17.06084566 -1.68115234 14.8581543 C-1.69447601 13.60350876 -1.70779968 12.34886322 -1.7215271 11.05619812 C-1.77081277 7.82712806 -1.77081277 7.82712806 -4 5 C-2.25 1.125 -2.25 1.125 0 0 Z " fill="#E3989F" transform="translate(70,208)"/>
<path d="M0 0 C1.98 0 3.96 0 6 0 C7.125 1.75 7.125 1.75 8 4 C7.125 6.25 7.125 6.25 6 8 C5.34 7.67 4.68 7.34 4 7 C4.33 11.62 4.66 16.24 5 21 C3.02 21.99 3.02 21.99 1 23 C0 22 0 22 -0.1875 19.5625 C0 17 0 17 2 15 C1.67 14.34 1.34 13.68 1 13 C0.01 13.66 -0.98 14.32 -2 15 C-2 12.36 -2 9.72 -2 7 C-1.34 7 -0.68 7 0 7 C0 4.69 0 2.38 0 0 Z M12 17 C12.66 17.33 13.32 17.66 14 18 C13.67 19.65 13.34 21.3 13 23 C12.01 23 11.02 23 10 23 C9.67 23.99 9.34 24.98 9 26 C8.01 25.67 7.02 25.34 6 25 C5.67 22.69 5.34 20.38 5 18 C7.31 18.33 9.62 18.66 12 19 C12 18.34 12 17.68 12 17 Z " fill="#E04861" transform="translate(265,240)"/>
<path d="M0 0 C7.60377358 0.87735849 7.60377358 0.87735849 11 3 C14.52338272 7.73046754 15.48123483 12.22518209 15 18 C14.01 18.33 13.02 18.66 12 19 C12.33 19.99 12.66 20.98 13 22 C12.34 22.66 11.68 23.32 11 24 C11 22.68 11 21.36 11 20 C10.01 20.33 9.02 20.66 8 21 C7.67 19.68 7.34 18.36 7 17 C8.98 17 10.96 17 13 17 C12.34 15.35 11.68 13.7 11 12 C10.01 12 9.02 12 8 12 C8 11.34 8 10.68 8 10 C7.38125 10.309375 6.7625 10.61875 6.125 10.9375 C4.75 11.625 3.375 12.3125 2 13 C1.67 11.68 1.34 10.36 1 9 C3.63904371 7.58622659 6.07120629 6.62759865 9 6 C7.68 5.67 6.36 5.34 5 5 C5 4.34 5 3.68 5 3 C4.01 3 3.02 3 2 3 C2 2.34 2 1.68 2 1 C1.34 0.67 0.68 0.34 0 0 Z " fill="#E24964" transform="translate(309,238)"/>
<path d="M0 0 C3.96 0 7.92 0 12 0 C12 9.24 12 18.48 12 28 C12.66 28 13.32 28 14 28 C13.97679687 27.37351563 13.95359375 26.74703125 13.9296875 26.1015625 C13.91164063 25.28429687 13.89359375 24.46703125 13.875 23.625 C13.85179687 22.81289062 13.82859375 22.00078125 13.8046875 21.1640625 C14 19 14 19 16 17 C15.34 24.26 14.68 31.52 14 39 C11.03 39 8.06 39 5 39 C4.34 38.01 3.68 37.02 3 36 C5.97 36.33 8.94 36.66 12 37 C11.505 35.515 11.505 35.515 11 34 C10.9153183 31.48631945 10.88398115 29.00130626 10.90234375 26.48828125 C10.9037587 25.76005661 10.90517365 25.03183197 10.90663147 24.28153992 C10.91222341 21.95848461 10.92477438 19.63552612 10.9375 17.3125 C10.94251604 15.73632952 10.94707877 14.16015752 10.95117188 12.58398438 C10.9621902 8.72261902 10.97944926 4.86132592 11 1 C7.7 1 4.4 1 1 1 C1 4.63 1 8.26 1 12 C0.67 12 0.34 12 0 12 C0 8.04 0 4.08 0 0 Z " fill="#E895A3" transform="translate(246,228)"/>
<path d="M0 0 C0.66 0 1.32 0 2 0 C1.67 1.98 1.34 3.96 1 6 C0.34 6 -0.32 6 -1 6 C-0.67 8.31 -0.34 10.62 0 13 C0.66 12.01 1.32 11.02 2 10 C2.66 11.65 3.32 13.3 4 15 C3.01 15.33 2.02 15.66 1 16 C1.33 17.65 1.66 19.3 2 21 C3.65 20.67 5.3 20.34 7 20 C7.33 21.32 7.66 22.64 8 24 C6.35 24.66 4.7 25.32 3 26 C-2.86991179 20.32575194 -2.86991179 20.32575194 -3.265625 16.29296875 C-3.19974716 3.19974716 -3.19974716 3.19974716 0 0 Z " fill="#DF5771" transform="translate(264,241)"/>
<path d="M0 0 C-0.99 0 -1.98 0 -3 0 C-3 0.66 -3 1.32 -3 2 C-3.99 2 -4.98 2 -6 2 C-6.309375 2.804375 -6.61875 3.60875 -6.9375 4.4375 C-8 7 -8 7 -9 8 C-9.19965405 10.03381744 -9.19965405 10.03381744 -9.1875 12.375 C-9.20167969 13.16648438 -9.21585938 13.95796875 -9.23046875 14.7734375 C-9.14507509 17.28731333 -9.14507509 17.28731333 -7 20 C-7.33 20.99 -7.66 21.98 -8 23 C-4.88089144 24.79275866 -2.32317572 25.34290718 1.25 25.625 C2.14203125 25.69976562 3.0340625 25.77453125 3.953125 25.8515625 C4.96632812 25.92503906 4.96632812 25.92503906 6 26 C6.33 25.34 6.66 24.68 7 24 C7.99 24.66 8.98 25.32 10 26 C5.64253467 28.47448823 1.91118413 28.53716076 -3 28 C-6.80613179 26.7312894 -8.47321278 25.70238295 -10.875 22.5 C-12.6355304 17.02279432 -13.15432894 11.32683519 -11.23828125 5.8046875 C-9.85903102 3.19883133 -8.36020951 1.27015714 -6 -0.5 C-3.64385954 -1.08903512 -2.26668797 -0.80953142 0 0 Z " fill="#D47485" transform="translate(239,239)"/>
<path d="M0 0 C2.35768019 0.7684291 3.92205061 1.61470041 6 3 C5.67 4.32 5.34 5.64 5 7 C4.79375 6.360625 4.5875 5.72125 4.375 5.0625 C3.10461791 2.65074923 3.10461791 2.65074923 -0.125 2.25 C-1.07375 2.1675 -2.0225 2.085 -3 2 C-3.66 3.32 -4.32 4.64 -5 6 C-6.32 5.67 -7.64 5.34 -9 5 C-9 4.34 -9 3.68 -9 3 C-9.99 3 -10.98 3 -12 3 C-12.33 3.99 -12.66 4.98 -13 6 C-13.66 6 -14.32 6 -15 6 C-15.66 6.99 -16.32 7.98 -17 9 C-17.33 7.68 -17.66 6.36 -18 5 C-12.72152196 -0.8649756 -7.64354155 -1.00243168 0 0 Z " fill="#DA5D73" transform="translate(403,238)"/>
<path d="M0 0 C2.5625 0.25 2.5625 0.25 5 1 C5.33 1.66 5.66 2.32 6 3 C7.64363134 3.72159424 9.31050386 4.39351421 11 5 C11 6.65 11 8.3 11 10 C9.54052295 9.93993922 8.08220728 9.8511311 6.625 9.75 C5.40683594 9.68039062 5.40683594 9.68039062 4.1640625 9.609375 C2 9 2 9 0.7109375 6.953125 C0.35902344 5.98632812 0.35902344 5.98632812 0 5 C0 5.66 0 6.32 0 7 C-0.99 7 -1.98 7 -3 7 C-2.25 2.25 -2.25 2.25 0 0 Z " fill="#E04861" transform="translate(265,266)"/>
<path d="M0 0 C0.33 0 0.66 0 1 0 C1 7.26 1 14.52 1 22 C-2.96 22 -6.92 22 -11 22 C-11 16.06 -11 10.12 -11 4 C-12.65 4.33 -14.3 4.66 -16 5 C-16 4.34 -16 3.68 -16 3 C-13.03 2.34 -10.06 1.68 -7 1 C-7.33 1.99 -7.66 2.98 -8 4 C-8.14403348 5.33363703 -8.24590423 6.67218046 -8.31640625 8.01171875 C-8.35830078 8.76904297 -8.40019531 9.52636719 -8.44335938 10.30664062 C-8.48267578 11.09232422 -8.52199219 11.87800781 -8.5625 12.6875 C-8.60568359 13.48478516 -8.64886719 14.28207031 -8.69335938 15.10351562 C-8.79927368 17.06881447 -8.90012551 19.03438496 -9 21 C-6.03 21 -3.06 21 0 21 C0 14.07 0 7.14 0 0 Z " fill="#E07486" transform="translate(193,244)"/>
<path d="M0 0 C1.41732422 -0.02126953 1.41732422 -0.02126953 2.86328125 -0.04296875 C5.83156882 0.19925665 7.99617165 0.94723393 10.6875 2.1875 C10.6875 2.5175 10.6875 2.8475 10.6875 3.1875 C8.7075 3.1875 6.7275 3.1875 4.6875 3.1875 C3.86111624 6.07984315 3.6875 8.07492431 3.6875 11.1875 C0.7175 10.6925 0.7175 10.6925 -2.3125 10.1875 C-2.43625 8.516875 -2.43625 8.516875 -2.5625 6.8125 C-2.89123787 3.12996056 -2.89123787 3.12996056 -5.375 1.75 C-6.014375 1.564375 -6.65375 1.37875 -7.3125 1.1875 C-4.75330818 -0.09209591 -2.85765972 0.01933464 0 0 Z " fill="#DE5A72" transform="translate(369.3125,237.8125)"/>
<path d="M0 0 C3 1 3 1 4 3 C4.66 2.67 5.32 2.34 6 2 C6.33 3.98 6.66 5.96 7 8 C5.02 8 3.04 8 1 8 C0.67 8.66 0.34 9.32 0 10 C-0.33 9.34 -0.66 8.68 -1 8 C-1.99 8.495 -1.99 8.495 -3 9 C-7.70491803 6.59016393 -7.70491803 6.59016393 -9 4 C-7.88625 3.71125 -6.7725 3.4225 -5.625 3.125 C-1.99708908 2.30758671 -1.99708908 2.30758671 0 0 Z " fill="#E14861" transform="translate(315,247)"/>
<path d="M0 0 C3.3 0 6.6 0 10 0 C10.04946866 4.07507572 10.08575189 8.15003497 10.10986328 12.2253418 C10.1199157 13.61144048 10.1335597 14.99751799 10.15087891 16.38354492 C10.17515952 18.3766975 10.18542031 20.37000533 10.1953125 22.36328125 C10.20578613 23.56251221 10.21625977 24.76174316 10.22705078 25.99731445 C10 29 10 29 8 32 C7.67 22.1 7.34 12.2 7 2 C4.69 2 2.38 2 0 2 C0 1.34 0 0.68 0 0 Z " fill="#D06476" transform="translate(281,238)"/>
<path d="M0 0 C0.88494141 -0.01224609 1.76988281 -0.02449219 2.68164062 -0.03710938 C3.52791016 -0.03904297 4.37417969 -0.04097656 5.24609375 -0.04296875 C6.02525146 -0.04707764 6.80440918 -0.05118652 7.60717773 -0.05541992 C9.5625 0.1875 9.5625 0.1875 11.5625 2.1875 C11.78955078 5.16845703 11.78955078 5.16845703 11.7578125 8.9453125 C11.7549826 9.60836395 11.75215271 10.27141541 11.74923706 10.95455933 C11.73803435 13.07405583 11.71293051 15.19313104 11.6875 17.3125 C11.67747028 18.74869182 11.66834441 20.18489025 11.66015625 21.62109375 C11.638095 25.14336628 11.60356494 28.66539203 11.5625 32.1875 C11.2325 32.1875 10.9025 32.1875 10.5625 32.1875 C10.5625 22.6175 10.5625 13.0475 10.5625 3.1875 C4.3994817 3.26656775 4.3994817 3.26656775 -1.76318359 3.36767578 C-2.52969238 3.3726709 -3.29620117 3.37766602 -4.0859375 3.3828125 C-5.26422119 3.39852295 -5.26422119 3.39852295 -6.46630859 3.41455078 C-8.4375 3.1875 -8.4375 3.1875 -10.4375 1.1875 C-8.1977852 -1.0522148 -3.00852512 0.00218167 0 0 Z " fill="#E291A1" transform="translate(122.4375,228.8125)"/>
<path d="M0 0 C0.33 0 0.66 0 1 0 C1 3.63 1 7.26 1 11 C-3.57619757 11.07756267 -7.51322418 10.89735516 -12 10 C-12.99 10.33 -13.98 10.66 -15 11 C-23.4 11.4 -23.4 11.4 -27 9 C-27 8.34 -27 7.68 -27 7 C-22.71 7.66 -18.42 8.32 -14 9 C-14 8.34 -14 7.68 -14 7 C-11.69 7 -9.38 7 -7 7 C-7 7.66 -7 8.32 -7 9 C-4.69 9 -2.38 9 0 9 C0 6.03 0 3.06 0 0 Z " fill="#D36377" transform="translate(225,256)"/>
<path d="M0 0 C1.32 0.33 2.64 0.66 4 1 C4 1.66 4 2.32 4 3 C4.99 3 5.98 3 7 3 C7.33 3.66 7.66 4.32 8 5 C8.99 5.33 9.98 5.66 11 6 C10.67 6.66 10.34 7.32 10 8 C5.50943059 9.49685647 1.58050922 8.81431275 -3 8 C-2.690625 7.236875 -2.38125 6.47375 -2.0625 5.6875 C-1.32106407 3.81210323 -0.63771783 1.91315348 0 0 Z " fill="#DE4763" transform="translate(307,238)"/>
<path d="M0 0 C1.32 0.66 2.64 1.32 4 2 C4 2.99 4 3.98 4 5 C0.84685215 7.10209857 0.13896919 7.2434761 -3.44921875 7.1953125 C-4.72055664 7.18564453 -4.72055664 7.18564453 -6.01757812 7.17578125 C-6.89865234 7.15902344 -7.77972656 7.14226562 -8.6875 7.125 C-9.58017578 7.11597656 -10.47285156 7.10695313 -11.39257812 7.09765625 C-13.59532314 7.07409748 -15.79752588 7.04120329 -18 7 C-17.67 6.34 -17.34 5.68 -17 5 C-14.12817413 4.52381188 -11.32879853 4.15832403 -8.4375 3.875 C-7.63119141 3.78863281 -6.82488281 3.70226562 -5.99414062 3.61328125 C-3.99695936 3.40056372 -1.99857263 3.19922145 0 3 C0 2.01 0 1.02 0 0 Z " fill="#D04B5E" transform="translate(145,285)"/>
<path d="M0 0 C0.66 0 1.32 0 2 0 C2 0.99 2 1.98 2 3 C3.32 2.01 4.64 1.02 6 0 C6.33 1.32 6.66 2.64 7 4 C8.45736087 4.19491452 9.91594593 4.38069358 11.375 4.5625 C12.59316406 4.71912109 12.59316406 4.71912109 13.8359375 4.87890625 C16.04899186 5.18237328 16.04899186 5.18237328 18 4 C20.00800456 4.28112064 22.01014051 4.61067967 24 5 C21.17101083 7.82898917 18.6609207 8.16826363 14.8125 8.25 C9.28919376 8.19584994 4.01806383 7.01806383 0 3 C0 2.01 0 1.02 0 0 Z " fill="#D9687B" transform="translate(260,270)"/>
<path d="M0 0 C0.33 0 0.66 0 1 0 C1.12117188 1.21558594 1.24234375 2.43117188 1.3671875 3.68359375 C1.53597078 5.26828117 1.70526816 6.8529139 1.875 8.4375 C1.95363281 9.23994141 2.03226562 10.04238281 2.11328125 10.86914062 C2.33845763 12.92170994 2.66222587 14.96293009 3 17 C5.9615696 18.4807848 8.83506295 18.35314037 12.125 18.5625 C13.40632813 18.64628906 14.68765625 18.73007812 16.0078125 18.81640625 C17.48894531 18.90728516 17.48894531 18.90728516 19 19 C19 15.04 19 11.08 19 7 C19.33 7 19.66 7 20 7 C20.33 11.29 20.66 15.58 21 20 C14.4 20 7.8 20 1 20 C-0.1482685 17.703463 -0.11561175 16.41686833 -0.09765625 13.8671875 C-0.09443359 13.06152344 -0.09121094 12.25585938 -0.08789062 11.42578125 C-0.07951172 10.58402344 -0.07113281 9.74226563 -0.0625 8.875 C-0.05798828 8.02550781 -0.05347656 7.17601562 -0.04882812 6.30078125 C-0.03702874 4.20049091 -0.01909306 2.1002367 0 0 Z " fill="#D67082" transform="translate(82,255)"/>
<path d="M0 0 C2 3.75 2 3.75 2 6 C2.66 6.33 3.32 6.66 4 7 C4 8 4 9 4 10 C7.96 10 11.92 10 16 10 C16 9.34 16 8.68 16 8 C17.32 8.66 18.64 9.32 20 10 C14.78935671 12.68936428 9.23788619 12.9274078 3.640625 11.32421875 C1.73598002 10.6116654 -0.1361535 9.81331484 -2 9 C-1.125 2.25 -1.125 2.25 0 0 Z " fill="#DD7688" transform="translate(387,255)"/>
<path d="M0 0 C0.99 0 1.98 0 3 0 C3 0.99 3 1.98 3 3 C4.98 2.67 6.96 2.34 9 2 C9 2.66 9 3.32 9 4 C3.17521449 7.03901852 -1.48208608 7.3540919 -8 7 C-8 6.34 -8 5.68 -8 5 C-7.05125 4.731875 -6.1025 4.46375 -5.125 4.1875 C-1.74732727 3.25013412 -1.74732727 3.25013412 0 0 Z " fill="#D65D71" transform="translate(311,260)"/>
<path d="M0 0 C2.2477975 2.05233685 3.0022242 3.00667261 4 6 C4.03954234 8.33299825 4.04401732 10.66708189 4 13 C3.01 13.33 2.02 13.66 1 14 C1.33 14.99 1.66 15.98 2 17 C1.34 17.66 0.68 18.32 0 19 C0 17.68 0 16.36 0 15 C-0.99 15.33 -1.98 15.66 -3 16 C-3.33 14.68 -3.66 13.36 -4 12 C-2.02 12 -0.04 12 2 12 C1.34 10.35 0.68 8.7 0 7 C-0.99 7 -1.98 7 -3 7 C-2.67 6.34 -2.34 5.68 -2 5 C-1.34 5 -0.68 5 0 5 C0 3.35 0 1.7 0 0 Z " fill="#DC778A" transform="translate(320,243)"/>
<path d="M0 0 C2 1.1875 2 1.1875 4 3 C4 4.66666667 4 6.33333333 4 8 C5.94009522 9.70532323 5.94009522 9.70532323 8 11 C8 11.66 8 12.32 8 13 C5.69 12.67 3.38 12.34 1 12 C0.67 12.99 0.34 13.98 0 15 C0.020625 13.989375 0.04125 12.97875 0.0625 11.9375 C0.08392843 7.99700491 0.08392843 7.99700491 -0.5625 4.125 C-0.706875 3.09375 -0.85125 2.0625 -1 1 C-0.67 0.67 -0.34 0.34 0 0 Z " fill="#DD576C" transform="translate(269,246)"/>
<path d="M0 0 C2.79486926 0.28912441 3.79651281 0.75738066 5.625 2.9375 C7.56975089 7.26899062 7.32377826 11.1266246 7.1875 15.8125 C7.17396484 16.69615234 7.16042969 17.57980469 7.14648438 18.49023438 C7.11129217 20.66042023 7.05748985 22.83029033 7 25 C6.34 24.67 5.68 24.34 5 24 C4.95101563 22.74703125 4.90203125 21.4940625 4.8515625 20.203125 C4.77651417 18.55206179 4.70096723 16.90102119 4.625 15.25 C4.5940625 14.425 4.563125 13.6 4.53125 12.75 C4.49257813 11.95078125 4.45390625 11.1515625 4.4140625 10.328125 C4.3826416 9.5949707 4.3512207 8.86181641 4.31884766 8.10644531 C3.78850984 4.60280464 2.48720885 2.48720885 0 0 Z " fill="#D87889" transform="translate(346,238)"/>
<path d="M0 0 C2.08218362 -0.10832169 4.16599129 -0.18573541 6.25 -0.25 C7.99023438 -0.31960937 7.99023438 -0.31960937 9.765625 -0.390625 C13 0 13 0 15.421875 1.890625 C17 4 17 4 17 6 C15.35 6.33 13.7 6.66 12 7 C12 6.01 12 5.02 12 4 C11.34 4 10.68 4 10 4 C10 3.34 10 2.68 10 2 C6.7 2 3.4 2 0 2 C0 1.34 0 0.68 0 0 Z " fill="#D45068" transform="translate(133,208)"/>
<path d="M0 0 C3 3.75 3 3.75 3 6 C2.01 6 1.02 6 0 6 C0 6.66 0 7.32 0 8 C-1.98 8 -3.96 8 -6 8 C-6 6.02 -6 4.04 -6 2 C-4.02 1.34 -2.04 0.68 0 0 Z " fill="#E0475F" transform="translate(375,257)"/>
<path d="M0 0 C0.103125 0.639375 0.20625 1.27875 0.3125 1.9375 C0.539375 2.618125 0.76625 3.29875 1 4 C1.99 4.33 2.98 4.66 4 5 C4.33 5.66 4.66 6.32 5 7 C6.32 7 7.64 7 9 7 C9.33 5.68 9.66 4.36 10 3 C11.98 2.67 13.96 2.34 16 2 C15.01 2.33 14.02 2.66 13 3 C13 4.98 13 6.96 13 9 C9.23696384 9.81163525 6.81256003 10.32502401 3.1875 8.875 C0.67499477 6.72142409 -0.18246785 5.18837538 -1 2 C-0.67 1.34 -0.34 0.68 0 0 Z " fill="#DF536C" transform="translate(356,256)"/>
<path d="M0 0 C2.33299825 0.03954234 4.66708189 0.04401732 7 0 C5.6875 1.5 5.6875 1.5 4 3 C3.01 3 2.02 3 1 3 C1 3.99 1 4.98 1 6 C0.01 5.67 -0.98 5.34 -2 5 C-2.33 4.34 -2.66 3.68 -3 3 C-7.60549717 1.88750714 -7.60549717 1.88750714 -12 3 C-12 2.01 -12 1.02 -12 0 C-10.56359829 -0.19573608 -9.12580496 -0.38127816 -7.6875 -0.5625 C-6.88699219 -0.66691406 -6.08648437 -0.77132812 -5.26171875 -0.87890625 C-3 -1 -3 -1 0 0 Z " fill="#DE6578" transform="translate(378,255)"/>
<path d="M0 0 C3.3 0 6.6 0 10 0 C10 3.63 10 7.26 10 11 C9.67 11 9.34 11 9 11 C9 7.7 9 4.4 9 1 C6.69 1 4.38 1 2 1 C2.01160156 1.71027344 2.02320313 2.42054688 2.03515625 3.15234375 C2.04869141 4.53099609 2.04869141 4.53099609 2.0625 5.9375 C2.07410156 6.85402344 2.08570313 7.77054688 2.09765625 8.71484375 C2 11 2 11 1 12 C-0.99958364 12.04080783 -3.00045254 12.04254356 -5 12 C-5.33 11.01 -5.66 10.02 -6 9 C-3.83125748 9.50603992 -2.00032373 9.99983813 0 11 C0 7.37 0 3.74 0 0 Z " fill="#D0546B" transform="translate(247,229)"/>
<path d="M0 0 C0.66 0 1.32 0 2 0 C1.67 1.98 1.34 3.96 1 6 C0.34 6 -0.32 6 -1 6 C-1 10.29 -1 14.58 -1 19 C-1.66 19 -2.32 19 -3 19 C-3.37379162 6.16648765 -3.37379162 6.16648765 -1 1 C-0.67 0.67 -0.34 0.34 0 0 Z " fill="#CD5A6D" transform="translate(264,241)"/>
<path d="M0 0 C3.73584906 1.47169811 3.73584906 1.47169811 5 4 C5.46537396 10.39889197 5.46537396 10.39889197 3.5 12.9375 C3.005 13.288125 2.51 13.63875 2 14 C1 7.375 1 7.375 1 4 C-0.43750191 2.31201173 -0.43750191 2.31201173 -2 1 C-1.34 0.67 -0.68 0.34 0 0 Z " fill="#DC6E86" transform="translate(405,250)"/>
<path d="M0 0 C-1.65 0.66 -3.3 1.32 -5 2 C-4.67 3.65 -4.34 5.3 -4 7 C-4.99 7.33 -5.98 7.66 -7 8 C-7 7.34 -7 6.68 -7 6 C-8.65 6 -10.3 6 -12 6 C-10.9200311 2.86809018 -9.99049526 1.99400788 -7.125 0.1875 C-4.02316031 -0.99119908 -2.9798555 -1.26070809 0 0 Z " fill="#DA5E75" transform="translate(307,239)"/>
<path d="M0 0 C0.82371094 -0.02578125 1.64742187 -0.0515625 2.49609375 -0.078125 C3.51896484 0.08429688 3.51896484 0.08429688 4.5625 0.25 C5.2225 1.24 5.8825 2.23 6.5625 3.25 C5.5725 3.745 5.5725 3.745 4.5625 4.25 C4.5625 3.59 4.5625 2.93 4.5625 2.25 C-1.3775 2.58 -7.3175 2.91 -13.4375 3.25 C-13.4375 4.9 -13.4375 6.55 -13.4375 8.25 C-13.7675 8.25 -14.0975 8.25 -14.4375 8.25 C-14.81883299 6.2585944 -15.15075582 4.25720923 -15.4375 2.25 C-12.56438732 -0.62311268 -3.99981947 0.12208751 0 0 Z " fill="#D76078" transform="translate(97.4375,227.75)"/>
<path d="M0 0 C3.3 0 6.6 0 10 0 C10 0.33 10 0.66 10 1 C8.35 1 6.7 1 5 1 C5 2.65 5 4.3 5 6 C3.35 6.33 1.7 6.66 0 7 C0 4.69 0 2.38 0 0 Z " fill="#D2465F" transform="translate(413,230)"/>
<path d="M0 0 C1.66611905 -0.042721 3.33382885 -0.04063832 5 0 C6 1 6 1 6.09765625 2.84765625 C6.06510417 4.8984375 6.03255208 6.94921875 6 9 C4.35 9 2.7 9 1 9 C1.66 7.02 2.32 5.04 3 3 C2.34 3 1.68 3 1 3 C0.67 2.01 0.34 1.02 0 0 Z " fill="#D67586" transform="translate(424,238)"/>
<path d="M0 0 C4.29 0.66 8.58 1.32 13 2 C13 1.34 13 0.68 13 0 C14.65 0.33 16.3 0.66 18 1 C13.40946914 4.0603539 9.41181529 4.46822547 4 4 C1.5 3 1.5 3 0 2 C0 1.34 0 0.68 0 0 Z " fill="#D56E7E" transform="translate(198,263)"/>
<path d="M0 0 C0 4.21010206 -0.66932514 8.00797543 -2 12 C-2.66 12 -3.32 12 -4 12 C-4.33 12.99 -4.66 13.98 -5 15 C-4.58997722 4.44191344 -4.58997722 4.44191344 0 0 Z " fill="#D77383" transform="translate(359,240)"/>
<path d="M0 0 C0.33 0 0.66 0 1 0 C1.33 2.97 1.66 5.94 2 9 C2.66 9 3.32 9 4 9 C4 10.32 4 11.64 4 13 C2.68 13.33 1.36 13.66 0 14 C0.33 12.02 0.66 10.04 1 8 C0.34 8 -0.32 8 -1 8 C-0.67 5.36 -0.34 2.72 0 0 Z " fill="#D9445C" transform="translate(423,232)"/>
<path d="M0 0 C2.625 0.375 2.625 0.375 5 1 C4.67 1.66 4.34 2.32 4 3 C3.34 3 2.68 3 2 3 C1.67 3.66 1.34 4.32 1 5 C0.67 5.66 0.34 6.32 0 7 C-0.99 7 -1.98 7 -3 7 C-2.25 2.25 -2.25 2.25 0 0 Z " fill="#D24E65" transform="translate(265,266)"/>
<path d="M0 0 C-0.99 0 -1.98 0 -3 0 C-3 0.66 -3 1.32 -3 2 C-3.99 2 -4.98 2 -6 2 C-6.4021875 3.2065625 -6.4021875 3.2065625 -6.8125 4.4375 C-7.4003125 5.7059375 -7.4003125 5.7059375 -8 7 C-8.99 7.33 -9.98 7.66 -11 8 C-10.11719174 4.38851165 -9.54896549 2.44784027 -6.625 0.0625 C-3.80024836 -1.08085185 -2.77143913 -1.12910483 0 0 Z " fill="#D06479" transform="translate(239,239)"/>
<path d="M0 0 C1.32 0.66 2.64 1.32 4 2 C-0.64849515 4.3992233 -4.91086074 4.19957409 -10 4 C-10 3.34 -10 2.68 -10 2 C-6.7 2 -3.4 2 0 2 C0 1.34 0 0.68 0 0 Z " fill="#D16A7E" transform="translate(403,263)"/>
<path d="M0 0 C0.66 0.33 1.32 0.66 2 1 C1.67 2.32 1.34 3.64 1 5 C-2.75 6.125 -2.75 6.125 -5 5 C-5 4.01 -5 3.02 -5 2 C-2.625 0.9375 -2.625 0.9375 0 0 Z " fill="#E16D84" transform="translate(270,261)"/>
<path d="M0 0 C0.66 0 1.32 0 2 0 C2.33 2.97 2.66 5.94 3 9 C1.02 9.33 -0.96 9.66 -3 10 C-3.66 9.01 -4.32 8.02 -5 7 C-3.35 6.67 -1.7 6.34 0 6 C0 4.02 0 2.04 0 0 Z " fill="#E17A8A" transform="translate(245,249)"/>
<path d="M0 0 C0.66 0 1.32 0 2 0 C2 0.99 2 1.98 2 3 C3.32 2.01 4.64 1.02 6 0 C6.5534764 2.07553648 7 3.84365964 7 6 C7.66 6.33 8.32 6.66 9 7 C5.51375944 6.3543999 2.87501211 5.07639763 0 3 C0 2.01 0 1.02 0 0 Z " fill="#DD7C91" transform="translate(260,270)"/>
<path d="M0 0 C1.32 0.66 2.64 1.32 4 2 C4 2.99 4 3.98 4 5 C2.35 5.66 0.7 6.32 -1 7 C-1.33 5.68 -1.66 4.36 -2 3 C-1.34 3 -0.68 3 0 3 C0 2.01 0 1.02 0 0 Z " fill="#D9697C" transform="translate(145,285)"/>
<path d="M0 0 C1.65 0 3.3 0 5 0 C5.66 1.98 6.32 3.96 7 6 C2.32307692 4.52307692 2.32307692 4.52307692 0.6875 1.875 C0.460625 1.25625 0.23375 0.6375 0 0 Z " fill="#DA667F" transform="translate(295,260)"/>
<path d="M0 0 C0.33 0.66 0.66 1.32 1 2 C1.66 2.33 2.32 2.66 3 3 C0.03 5.475 0.03 5.475 -3 8 C-3.33 6.35 -3.66 4.7 -4 3 C-2.68 2.01 -1.36 1.02 0 0 Z " fill="#D85E74" transform="translate(70,208)"/>
<path d="M0 0 C0.66 0 1.32 0 2 0 C2 1.65 2 3.3 2 5 C-4.93 4.505 -4.93 4.505 -12 4 C-12 3.67 -12 3.34 -12 3 C-8.04 3 -4.08 3 0 3 C0 2.01 0 1.02 0 0 Z " fill="#D76277" transform="translate(131,270)"/>
<path d="M0 0 C3.71888239 0.50712033 6.73454239 1.11608215 10 3 C9.67 4.32 9.34 5.64 9 7 C8.773125 6.360625 8.54625 5.72125 8.3125 5.0625 C7.16470196 2.73647686 7.16470196 2.73647686 4.5 2.375 C3.675 2.25125 2.85 2.1275 2 2 C1.34 1.34 0.68 0.68 0 0 Z " fill="#DB8091" transform="translate(399,238)"/>
<path d="M0 0 C3.375 0.25 3.375 0.25 7 1 C8.4375 3.0625 8.4375 3.0625 9 5 C7.02 5.99 7.02 5.99 5 7 C5 5.68 5 4.36 5 3 C2.525 2.01 2.525 2.01 0 1 C0 0.67 0 0.34 0 0 Z " fill="#D7546E" transform="translate(270,268)"/>
<path d="M0 0 C1.5 1.375 1.5 1.375 3 3 C3 3.66 3 4.32 3 5 C1.35 5.66 -0.3 6.32 -2 7 C-1.125 1.125 -1.125 1.125 0 0 Z " fill="#E44660" transform="translate(348,241)"/>
<path d="M0 0 C4.05606165 0.46800711 7.46588679 0.87953208 11 3 C10.67 3.66 10.34 4.32 10 5 C9.67 4.67 9.34 4.34 9 4 C6.67182036 3.63239269 4.3381615 3.29758419 2 3 C2 2.34 2 1.68 2 1 C1.34 0.67 0.68 0.34 0 0 Z " fill="#E08091" transform="translate(309,238)"/>
<path d="M0 0 C2.40072955 2.88087546 4.47291037 5.56404834 6 9 C5.01 9.495 5.01 9.495 4 10 C2 9 2 9 0.875 6.6875 C0 4 0 4 0 0 Z " fill="#D97082" transform="translate(104,231)"/>
<path d="M0 0 C1.37562854 1.28965176 2.70766393 2.62689293 4 4 C4 4.66 4 5.32 4 6 C2.02 6.33 0.04 6.66 -2 7 C-2 6.34 -2 5.68 -2 5 C-1.34 4.67 -0.68 4.34 0 4 C0 2.68 0 1.36 0 0 Z " fill="#DF6478" transform="translate(380,241)"/>
<path d="M0 0 C0.99 0.33 1.98 0.66 3 1 C2.01 1.33 1.02 1.66 0 2 C0 1.34 0 0.68 0 0 Z M-2 1 C-1.01 1.495 -1.01 1.495 0 2 C0 2.66 0 3.32 0 4 C0.99 4.33 1.98 4.66 3 5 C0.525 6.485 0.525 6.485 -2 8 C-2 5.69 -2 3.38 -2 1 Z " fill="#E76980" transform="translate(274,243)"/>
<path d="M0 0 C0.103125 0.639375 0.20625 1.27875 0.3125 1.9375 C0.539375 2.618125 0.76625 3.29875 1 4 C1.99 4.33 2.98 4.66 4 5 C4.6875 7.0625 4.6875 7.0625 5 9 C2.09303901 7.93411431 1.15567038 7.29651501 -0.3125 4.5 C-1 2 -1 2 0 0 Z " fill="#DC7386" transform="translate(356,256)"/>
<path d="M0 0 C0.66 1.32 1.32 2.64 2 4 C2.99 3.67 3.98 3.34 5 3 C5.66 4.98 6.32 6.96 7 9 C3.64564078 7.61198929 1.88709697 6.11371 0 3 C0 2.01 0 1.02 0 0 Z " fill="#F0A3B0" transform="translate(384,247)"/>
<path d="M0 0 C1.98 0 3.96 0 6 0 C5.67 1.98 5.34 3.96 5 6 C4.34 6 3.68 6 3 6 C3 4.68 3 3.36 3 2 C2.01 2 1.02 2 0 2 C0 1.34 0 0.68 0 0 Z " fill="#E58194" transform="translate(424,255)"/>
<path d="M0 0 C1.32 0.33 2.64 0.66 4 1 C3.67 2.65 3.34 4.3 3 6 C2.34 6 1.68 6 1 6 C0.67 4.02 0.34 2.04 0 0 Z " fill="#DF4159" transform="translate(411,242)"/>
<path d="M0 0 C0.33 1.32 0.66 2.64 1 4 C-0.65 4.33 -2.3 4.66 -4 5 C-4 3.68 -4 2.36 -4 1 C-2 0 -2 0 0 0 Z " fill="#DC687B" transform="translate(149,210)"/>
<path d="M0 0 C1.32 1.32 2.64 2.64 4 4 C2.35 4.33 0.7 4.66 -1 5 C-1.66 4.01 -2.32 3.02 -3 2 C-2.01 2 -1.02 2 0 2 C0 1.34 0 0.68 0 0 Z " fill="#D65F76" transform="translate(70,287)"/>
<path d="M0 0 C2 3 2 3 2 7 C2.33 7.66 2.66 8.32 3 9 C2.01 8.67 1.02 8.34 0 8 C-1.1875 4.9375 -1.1875 4.9375 -2 2 C-1.34 1.34 -0.68 0.68 0 0 Z " fill="#E17186" transform="translate(230,256)"/>
<path d="M0 0 C0.66 0 1.32 0 2 0 C1.67 1.98 1.34 3.96 1 6 C0.34 6 -0.32 6 -1 6 C-1.625 4.125 -1.625 4.125 -2 2 C-1.34 1.34 -0.68 0.68 0 0 Z " fill="#DC6578" transform="translate(264,241)"/>
</svg>
