<svg xmlns="http://www.w3.org/2000/svg" xmlns:xlink="http://www.w3.org/1999/xlink" width="250" zoomAndPan="magnify" viewBox="0 0 187.5 74.999997" height="100" preserveAspectRatio="xMidYMid meet" version="1.0"><defs><g/><clipPath id="00561e7caa"><path d="M 0.734375 14 L 42.621094 14 L 42.621094 54 L 0.734375 54 Z M 0.734375 14 " clip-rule="nonzero"/></clipPath><clipPath id="4e24c318ff"><rect x="0" width="43" y="0" height="68"/></clipPath><clipPath id="db363aed44"><path d="M 64 5 L 89.894531 5 L 89.894531 55 L 64 55 Z M 64 5 " clip-rule="nonzero"/></clipPath><clipPath id="5fb68a666a"><rect x="0" width="90" y="0" height="68"/></clipPath><clipPath id="0a8163346b"><rect x="0" width="30" y="0" height="40"/></clipPath></defs><g transform="matrix(1, 0, 0, 1, 39, 3)"><g clip-path="url(#4e24c318ff)"><g clip-path="url(#00561e7caa)"><g fill="#ffffff" fill-opacity="1"><g transform="translate(3.325346, 51.714572)"><g><path d="M 16.832031 2.132812 L -4.664062 2.132812 L -1.023438 -1.507812 C -0.636719 -1.894531 -0.375 -2.347656 -0.230469 -2.878906 C -0.0351562 -3.589844 0.0625 -4.550781 0.0625 -5.757812 L 0.0625 -28.398438 C 0.0625 -29.605469 -0.0351562 -30.566406 -0.230469 -31.277344 C -0.375 -31.804688 -0.636719 -32.261719 -1.023438 -32.644531 L -4.664062 -36.289062 L 12.441406 -36.289062 C 13.308594 -36.289062 14.074219 -36.117188 14.734375 -35.777344 C 15.492188 -35.382812 16.070312 -34.800781 16.464844 -34.027344 C 16.996094 -32.992188 17.261719 -31.683594 17.261719 -30.105469 L 17.261719 -29.277344 C 17.261719 -29.050781 17.265625 -28.886719 17.277344 -28.78125 C 17.277344 -28.773438 17.277344 -28.769531 17.277344 -28.769531 C 17.273438 -28.789062 17.269531 -28.808594 17.265625 -28.832031 C 17.21875 -29.039062 17.132812 -29.238281 17 -29.433594 C 16.855469 -29.652344 16.664062 -29.832031 16.429688 -29.972656 C 16.132812 -30.152344 15.8125 -30.238281 15.46875 -30.238281 C 15.269531 -30.238281 15.101562 -30.195312 14.953125 -30.109375 C 14.929688 -30.09375 14.910156 -30.082031 14.902344 -30.074219 C 14.917969 -30.085938 14.9375 -30.109375 14.964844 -30.144531 C 15.316406 -30.570312 15.730469 -31.109375 16.214844 -31.761719 C 16.800781 -32.558594 17.511719 -33.335938 18.347656 -34.097656 C 19.269531 -34.9375 20.40625 -35.632812 21.765625 -36.183594 C 23.144531 -36.742188 24.800781 -37.023438 26.738281 -37.023438 C 28.945312 -37.023438 30.769531 -36.558594 32.210938 -35.632812 C 33.625 -34.726562 34.714844 -33.523438 35.472656 -32.023438 C 36.160156 -30.667969 36.628906 -29.214844 36.875 -27.660156 C 37.101562 -26.214844 37.21875 -24.800781 37.21875 -23.421875 L 37.265625 -14.113281 L 37.265625 -5.757812 C 37.265625 -4.550781 37.363281 -3.589844 37.554688 -2.878906 C 37.699219 -2.347656 37.964844 -1.894531 38.347656 -1.507812 L 41.992188 2.132812 L 15.339844 2.132812 L 18.984375 -1.507812 C 19.367188 -1.894531 19.632812 -2.347656 19.777344 -2.878906 C 19.96875 -3.589844 20.066406 -4.550781 20.066406 -5.757812 L 20.066406 -21.617188 C 20.066406 -22.453125 19.933594 -23.171875 19.664062 -23.773438 C 19.652344 -23.804688 19.640625 -23.824219 19.632812 -23.832031 C 19.644531 -23.820312 19.660156 -23.808594 19.675781 -23.796875 C 19.679688 -23.796875 19.683594 -23.792969 19.683594 -23.792969 C 19.679688 -23.796875 19.667969 -23.796875 19.65625 -23.800781 C 19.597656 -23.816406 19.515625 -23.824219 19.417969 -23.824219 C 19.078125 -23.824219 18.757812 -23.726562 18.453125 -23.539062 C 18.191406 -23.375 17.945312 -23.007812 17.710938 -22.441406 C 17.410156 -21.707031 17.261719 -20.570312 17.261719 -19.03125 L 17.261719 -5.757812 C 17.261719 -4.550781 17.359375 -3.589844 17.550781 -2.878906 C 17.695312 -2.347656 17.960938 -1.894531 18.34375 -1.507812 L 21.988281 2.132812 Z M 16.832031 -2.132812 L 16.832031 0 L 15.324219 1.507812 C 14.40625 0.589844 13.777344 -0.496094 13.433594 -1.757812 C 13.136719 -2.835938 12.992188 -4.167969 12.992188 -5.757812 L 12.992188 -19.03125 C 12.992188 -21.132812 13.246094 -22.808594 13.761719 -24.058594 C 14.339844 -25.476562 15.152344 -26.507812 16.191406 -27.160156 C 17.1875 -27.78125 18.261719 -28.09375 19.417969 -28.09375 C 20.351562 -28.09375 21.167969 -27.882812 21.871094 -27.460938 C 22.625 -27.007812 23.1875 -26.359375 23.566406 -25.507812 C 24.078125 -24.351562 24.335938 -23.054688 24.335938 -21.617188 L 24.335938 -5.757812 C 24.335938 -4.167969 24.1875 -2.835938 23.894531 -1.757812 C 23.550781 -0.496094 22.921875 0.589844 22.003906 1.507812 L 20.492188 0 L 20.492188 -2.132812 L 36.839844 -2.132812 L 36.839844 0 L 35.328125 1.507812 C 34.410156 0.589844 33.78125 -0.496094 33.4375 -1.757812 C 33.144531 -2.835938 32.996094 -4.167969 32.996094 -5.757812 L 32.996094 -14.089844 L 32.949219 -23.421875 C 32.949219 -24.578125 32.851562 -25.765625 32.65625 -26.988281 C 32.480469 -28.101562 32.148438 -29.136719 31.664062 -30.089844 C 31.253906 -30.902344 30.667969 -31.550781 29.902344 -32.042969 C 29.164062 -32.515625 28.109375 -32.753906 26.738281 -32.753906 C 25.359375 -32.753906 24.234375 -32.578125 23.371094 -32.226562 C 22.484375 -31.867188 21.765625 -31.4375 21.222656 -30.941406 C 20.59375 -30.371094 20.070312 -29.796875 19.648438 -29.226562 C 19.121094 -28.515625 18.660156 -27.917969 18.261719 -27.433594 C 17.460938 -26.457031 16.53125 -25.96875 15.46875 -25.96875 C 15.023438 -25.96875 14.613281 -26.082031 14.234375 -26.3125 C 13.921875 -26.5 13.65625 -26.753906 13.449219 -27.066406 C 13.214844 -27.414062 13.074219 -27.851562 13.023438 -28.378906 C 13.003906 -28.617188 12.992188 -28.914062 12.992188 -29.277344 L 12.992188 -30.105469 C 12.992188 -31 12.882812 -31.660156 12.664062 -32.085938 C 12.683594 -32.046875 12.722656 -32.011719 12.773438 -31.984375 C 12.726562 -32.007812 12.617188 -32.019531 12.441406 -32.019531 L 0.488281 -32.019531 L 0.488281 -34.15625 L 1.996094 -35.664062 C 2.914062 -34.746094 3.546875 -33.660156 3.890625 -32.398438 C 4.183594 -31.320312 4.332031 -29.988281 4.332031 -28.398438 L 4.332031 -5.757812 C 4.332031 -4.167969 4.183594 -2.835938 3.890625 -1.757812 C 3.546875 -0.496094 2.914062 0.589844 1.996094 1.507812 L 0.488281 0 L 0.488281 -2.132812 Z M 16.832031 -2.132812 "/></g></g></g></g><g fill="#e24861" fill-opacity="1"><g transform="translate(3.325346, 51.714572)"><g><path d="M 16.828125 0 L 0.484375 0 C 1.140625 -0.644531 1.585938 -1.414062 1.828125 -2.3125 C 2.078125 -3.207031 2.203125 -4.359375 2.203125 -5.765625 L 2.203125 -28.40625 C 2.203125 -29.800781 2.078125 -30.945312 1.828125 -31.84375 C 1.585938 -32.738281 1.140625 -33.507812 0.484375 -34.15625 L 12.4375 -34.15625 C 13.476562 -34.15625 14.1875 -33.789062 14.5625 -33.0625 C 14.9375 -32.332031 15.125 -31.347656 15.125 -30.109375 L 15.125 -29.28125 C 15.125 -28.695312 15.15625 -28.351562 15.21875 -28.25 C 15.289062 -28.15625 15.375 -28.109375 15.46875 -28.109375 C 15.851562 -28.109375 16.234375 -28.332031 16.609375 -28.78125 C 16.984375 -29.238281 17.421875 -29.804688 17.921875 -30.484375 C 18.429688 -31.171875 19.050781 -31.847656 19.78125 -32.515625 C 20.519531 -33.191406 21.445312 -33.753906 22.5625 -34.203125 C 23.6875 -34.660156 25.078125 -34.890625 26.734375 -34.890625 C 28.523438 -34.890625 29.960938 -34.539062 31.046875 -33.84375 C 32.140625 -33.144531 32.976562 -32.21875 33.5625 -31.0625 C 34.15625 -29.90625 34.554688 -28.660156 34.765625 -27.328125 C 34.972656 -25.992188 35.078125 -24.691406 35.078125 -23.421875 L 35.140625 -14.109375 L 35.140625 -5.765625 C 35.140625 -4.359375 35.257812 -3.207031 35.5 -2.3125 C 35.738281 -1.414062 36.1875 -0.644531 36.84375 0 L 20.5 0 C 21.144531 -0.644531 21.585938 -1.414062 21.828125 -2.3125 C 22.078125 -3.207031 22.203125 -4.359375 22.203125 -5.765625 L 22.203125 -21.609375 C 22.203125 -22.753906 22.003906 -23.765625 21.609375 -24.640625 C 21.222656 -25.515625 20.492188 -25.953125 19.421875 -25.953125 C 18.671875 -25.953125 17.96875 -25.75 17.3125 -25.34375 C 16.664062 -24.9375 16.140625 -24.238281 15.734375 -23.25 C 15.328125 -22.257812 15.125 -20.851562 15.125 -19.03125 L 15.125 -5.765625 C 15.125 -4.359375 15.242188 -3.207031 15.484375 -2.3125 C 15.734375 -1.414062 16.179688 -0.644531 16.828125 0 Z M 16.828125 0 "/></g></g></g></g></g><g transform="matrix(1, 0, 0, 1, 70, 3)"><g clip-path="url(#5fb68a666a)"><g fill="#ffffff" fill-opacity="1"><g transform="translate(2.553029, 51.714572)"><g><path d="M -0.914062 -16.152344 C -0.914062 -20.050781 -0.179688 -23.550781 1.292969 -26.652344 C 2.800781 -29.839844 5.03125 -32.363281 7.984375 -34.226562 C 10.933594 -36.089844 14.519531 -37.023438 18.738281 -37.023438 C 22.03125 -37.023438 24.863281 -36.300781 27.238281 -34.855469 C 29.605469 -33.417969 31.40625 -31.535156 32.648438 -29.207031 C 33.871094 -26.910156 34.484375 -24.460938 34.484375 -21.859375 C 34.484375 -19.707031 33.933594 -17.984375 32.828125 -16.691406 C 31.78125 -15.46875 30.394531 -14.613281 28.664062 -14.121094 C 27.183594 -13.699219 25.527344 -13.453125 23.699219 -13.382812 C 21.980469 -13.316406 20.1875 -13.324219 18.324219 -13.40625 C 16.550781 -13.488281 14.816406 -13.527344 13.125 -13.527344 C 13.03125 -13.527344 12.917969 -13.515625 12.785156 -13.492188 C 13.316406 -13.589844 13.710938 -13.875 13.96875 -14.34375 C 14.082031 -14.546875 14.136719 -14.726562 14.136719 -14.882812 C 14.136719 -15.066406 14.109375 -15.230469 14.046875 -15.375 C 14.035156 -15.394531 14.027344 -15.414062 14.019531 -15.425781 C 14.023438 -15.417969 14.035156 -15.40625 14.046875 -15.390625 C 14.167969 -15.226562 14.382812 -15.007812 14.695312 -14.738281 C 15.453125 -14.082031 16.453125 -13.398438 17.699219 -12.6875 C 18.941406 -11.976562 20.277344 -11.382812 21.703125 -10.90625 C 23.046875 -10.457031 24.300781 -10.234375 25.46875 -10.234375 C 26.390625 -10.234375 27.089844 -10.320312 27.570312 -10.496094 C 28.078125 -10.679688 28.457031 -10.871094 28.707031 -11.058594 C 29.074219 -11.34375 29.367188 -11.589844 29.59375 -11.800781 C 30.28125 -12.449219 31.019531 -12.773438 31.8125 -12.773438 C 32.4375 -12.773438 33.027344 -12.570312 33.582031 -12.167969 C 34.347656 -11.613281 34.730469 -10.761719 34.730469 -9.613281 C 34.730469 -8.394531 34.398438 -7.050781 33.734375 -5.585938 C 33.089844 -4.160156 32.132812 -2.8125 30.859375 -1.539062 C 29.570312 -0.253906 27.945312 0.804688 25.976562 1.628906 C 24.007812 2.453125 21.707031 2.867188 19.078125 2.867188 C 16.464844 2.867188 13.960938 2.394531 11.5625 1.449219 C 9.167969 0.507812 7.042969 -0.820312 5.1875 -2.527344 C 3.328125 -4.242188 1.851562 -6.25 0.757812 -8.546875 C -0.359375 -10.886719 -0.914062 -13.421875 -0.914062 -16.152344 Z M 3.355469 -16.152344 C 3.355469 -14.066406 3.773438 -12.144531 4.609375 -10.382812 C 5.46875 -8.582031 6.625 -7.011719 8.082031 -5.667969 C 9.546875 -4.320312 11.226562 -3.269531 13.128906 -2.523438 C 15.023438 -1.777344 17.007812 -1.402344 19.078125 -1.402344 C 21.132812 -1.402344 22.882812 -1.707031 24.328125 -2.308594 C 25.777344 -2.917969 26.949219 -3.667969 27.839844 -4.558594 C 28.746094 -5.464844 29.414062 -6.394531 29.84375 -7.34375 C 30.253906 -8.253906 30.460938 -9.007812 30.460938 -9.613281 C 30.460938 -9.625 30.460938 -9.632812 30.457031 -9.640625 C 30.457031 -9.640625 30.460938 -9.636719 30.460938 -9.632812 C 30.464844 -9.585938 30.476562 -9.535156 30.496094 -9.480469 C 30.59375 -9.175781 30.785156 -8.921875 31.070312 -8.714844 C 31.265625 -8.574219 31.511719 -8.503906 31.8125 -8.503906 C 32.046875 -8.503906 32.25 -8.550781 32.433594 -8.640625 C 32.46875 -8.660156 32.503906 -8.679688 32.527344 -8.699219 L 32.519531 -8.691406 C 32.191406 -8.382812 31.789062 -8.042969 31.308594 -7.675781 C 30.710938 -7.214844 29.953125 -6.820312 29.03125 -6.484375 C 28.078125 -6.136719 26.890625 -5.964844 25.46875 -5.964844 C 23.839844 -5.964844 22.136719 -6.261719 20.355469 -6.855469 C 18.660156 -7.421875 17.066406 -8.128906 15.578125 -8.980469 C 14.09375 -9.828125 12.863281 -10.671875 11.898438 -11.511719 C 11.347656 -11.992188 10.917969 -12.441406 10.605469 -12.859375 C 10.113281 -13.527344 9.867188 -14.203125 9.867188 -14.882812 C 9.867188 -15.460938 9.988281 -15.96875 10.230469 -16.40625 C 10.621094 -17.113281 11.210938 -17.539062 12 -17.6875 C 12.390625 -17.761719 12.765625 -17.796875 13.125 -17.796875 C 14.882812 -17.796875 16.679688 -17.757812 18.515625 -17.671875 C 20.261719 -17.59375 21.933594 -17.585938 23.53125 -17.648438 C 25.023438 -17.707031 26.34375 -17.902344 27.496094 -18.226562 C 28.402344 -18.484375 29.09375 -18.898438 29.582031 -19.464844 C 30.003906 -19.960938 30.214844 -20.757812 30.214844 -21.859375 C 30.214844 -23.75 29.769531 -25.527344 28.878906 -27.199219 C 28.007812 -28.839844 26.71875 -30.175781 25.019531 -31.210938 C 23.328125 -32.238281 21.234375 -32.753906 18.738281 -32.753906 C 15.34375 -32.753906 12.519531 -32.042969 10.265625 -30.617188 C 8.011719 -29.195312 6.304688 -27.265625 5.148438 -24.824219 C 3.953125 -22.300781 3.355469 -19.410156 3.355469 -16.152344 Z M 8.820312 -25.078125 C 8.820312 -24.179688 8.96875 -23.296875 9.265625 -22.429688 C 9.511719 -21.714844 9.898438 -21.132812 10.425781 -20.6875 C 10.859375 -20.320312 11.464844 -20.140625 12.246094 -20.140625 C 13.335938 -20.140625 14.441406 -20.179688 15.5625 -20.257812 C 16.613281 -20.328125 17.574219 -20.472656 18.445312 -20.6875 C 19.128906 -20.855469 19.648438 -21.082031 20.003906 -21.371094 C 20.046875 -21.40625 20.074219 -21.4375 20.085938 -21.460938 C 20.105469 -21.503906 20.113281 -21.570312 20.113281 -21.664062 C 20.113281 -22.511719 19.914062 -23.246094 19.507812 -23.867188 C 19.035156 -24.597656 18.40625 -25.222656 17.625 -25.742188 C 16.777344 -26.308594 15.886719 -26.730469 14.953125 -27.011719 C 14.011719 -27.292969 13.128906 -27.433594 12.296875 -27.433594 C 11.667969 -27.433594 11.054688 -27.308594 10.457031 -27.058594 C 9.917969 -26.835938 9.484375 -26.527344 9.15625 -26.132812 C 8.933594 -25.859375 8.820312 -25.511719 8.820312 -25.078125 Z M 4.550781 -25.078125 C 4.550781 -26.535156 4.992188 -27.796875 5.871094 -28.859375 C 6.648438 -29.796875 7.632812 -30.511719 8.816406 -31.003906 C 9.941406 -31.46875 11.101562 -31.703125 12.296875 -31.703125 C 13.546875 -31.703125 14.839844 -31.503906 16.179688 -31.101562 C 17.519531 -30.699219 18.792969 -30.097656 19.992188 -29.296875 C 21.261719 -28.449219 22.292969 -27.417969 23.089844 -26.195312 C 23.953125 -24.863281 24.382812 -23.355469 24.382812 -21.664062 C 24.382812 -20.171875 23.820312 -18.96875 22.691406 -18.054688 C 21.84375 -17.367188 20.765625 -16.863281 19.464844 -16.542969 C 18.355469 -16.269531 17.152344 -16.085938 15.859375 -15.996094 C 14.640625 -15.914062 13.433594 -15.871094 12.246094 -15.871094 C 10.425781 -15.871094 8.902344 -16.386719 7.675781 -17.421875 C 6.542969 -18.375 5.730469 -19.582031 5.226562 -21.042969 C 4.777344 -22.359375 4.550781 -23.703125 4.550781 -25.078125 Z M 4.550781 -25.078125 "/></g></g></g><g fill="#ffffff" fill-opacity="1"><g transform="translate(34.99917, 51.714572)"><g><path d="M -1.402344 -24.398438 C -1.402344 -26.886719 -0.8125 -28.988281 0.363281 -30.703125 C 1.496094 -32.355469 2.996094 -33.652344 4.867188 -34.597656 C 6.59375 -35.46875 8.476562 -36.09375 10.515625 -36.472656 C 12.480469 -36.839844 14.457031 -37.023438 16.441406 -37.023438 C 18.71875 -37.023438 20.863281 -36.839844 22.875 -36.476562 C 24.898438 -36.109375 26.699219 -35.617188 28.277344 -34.996094 C 29.941406 -34.339844 31.269531 -33.597656 32.257812 -32.765625 C 33.582031 -31.65625 34.242188 -30.410156 34.242188 -29.03125 C 34.242188 -27.628906 33.914062 -26.265625 33.265625 -24.941406 C 32.640625 -23.675781 31.871094 -22.625 30.957031 -21.792969 C 29.832031 -20.773438 28.703125 -20.261719 27.566406 -20.261719 C 25.898438 -20.261719 24.316406 -20.675781 22.824219 -21.507812 C 21.523438 -22.226562 20.261719 -23.117188 19.046875 -24.175781 L 15.753906 -27.027344 C 14.765625 -27.882812 13.769531 -28.601562 12.761719 -29.1875 C 11.972656 -29.644531 11.148438 -29.875 10.296875 -29.875 C 9.996094 -29.875 9.65625 -29.804688 9.277344 -29.664062 C 9.015625 -29.566406 8.804688 -29.421875 8.640625 -29.226562 C 8.566406 -29.132812 8.527344 -28.941406 8.527344 -28.640625 C 8.527344 -28.585938 8.53125 -28.546875 8.546875 -28.523438 C 8.566406 -28.476562 8.621094 -28.421875 8.703125 -28.355469 C 9.132812 -28.011719 9.769531 -27.71875 10.621094 -27.472656 C 11.679688 -27.164062 12.859375 -26.886719 14.160156 -26.640625 C 16.347656 -26.242188 18.550781 -25.75 20.769531 -25.167969 C 23.101562 -24.554688 25.230469 -23.714844 27.160156 -22.65625 C 29.230469 -21.515625 30.898438 -20.015625 32.164062 -18.15625 C 33.484375 -16.214844 34.144531 -13.855469 34.144531 -11.074219 C 34.144531 -8.410156 33.53125 -6.136719 32.3125 -4.253906 C 31.136719 -2.441406 29.636719 -1.003906 27.816406 0.0625 C 26.101562 1.066406 24.300781 1.785156 22.417969 2.226562 C 20.582031 2.652344 18.898438 2.867188 17.371094 2.867188 C 15.625 2.867188 13.761719 2.746094 11.773438 2.511719 C 9.792969 2.273438 7.925781 1.949219 6.175781 1.542969 C 4.332031 1.113281 2.804688 0.589844 1.59375 -0.0234375 C -0.242188 -0.957031 -1.160156 -2.167969 -1.160156 -3.660156 C -1.160156 -4.386719 -0.984375 -5.34375 -0.632812 -6.53125 C -0.3125 -7.617188 0.101562 -8.730469 0.613281 -9.871094 C 1.148438 -11.078125 1.746094 -12.109375 2.394531 -12.972656 C 3.375 -14.269531 4.464844 -14.917969 5.660156 -14.917969 C 6.828125 -14.917969 8.089844 -14.480469 9.453125 -13.601562 C 10.453125 -12.957031 11.625 -12.214844 12.964844 -11.371094 C 14.191406 -10.605469 15.613281 -9.921875 17.234375 -9.320312 C 18.75 -8.757812 20.503906 -8.476562 22.492188 -8.476562 C 23.375 -8.476562 24.214844 -8.628906 25.011719 -8.925781 C 25.765625 -9.210938 26.375 -9.582031 26.839844 -10.046875 C 27.105469 -10.316406 27.238281 -10.574219 27.238281 -10.832031 C 27.238281 -10.847656 27.238281 -10.859375 27.238281 -10.867188 C 27.238281 -10.863281 27.238281 -10.859375 27.238281 -10.855469 C 27.25 -10.808594 27.265625 -10.753906 27.292969 -10.695312 C 27.386719 -10.484375 27.539062 -10.3125 27.75 -10.191406 C 27.773438 -10.175781 27.789062 -10.167969 27.804688 -10.164062 C 27.792969 -10.167969 27.777344 -10.171875 27.753906 -10.175781 C 27.644531 -10.199219 27.5 -10.210938 27.324219 -10.210938 C 26.519531 -10.210938 25.460938 -10.113281 24.152344 -9.917969 C 22.632812 -9.6875 20.890625 -9.574219 18.933594 -9.574219 C 16.804688 -9.574219 14.617188 -9.800781 12.363281 -10.25 C 10.039062 -10.714844 7.871094 -11.496094 5.859375 -12.59375 C 3.742188 -13.746094 2.019531 -15.269531 0.691406 -17.171875 C -0.703125 -19.164062 -1.402344 -21.574219 -1.402344 -24.398438 Z M 2.867188 -24.398438 C 2.867188 -22.46875 3.308594 -20.878906 4.1875 -19.621094 C 5.136719 -18.265625 6.371094 -17.175781 7.902344 -16.34375 C 9.53125 -15.453125 11.300781 -14.820312 13.203125 -14.4375 C 15.179688 -14.042969 17.089844 -13.84375 18.933594 -13.84375 C 20.679688 -13.84375 22.210938 -13.941406 23.519531 -14.140625 C 25.039062 -14.367188 26.308594 -14.480469 27.324219 -14.480469 C 28.363281 -14.480469 29.230469 -14.273438 29.921875 -13.867188 C 30.492188 -13.53125 30.914062 -13.054688 31.1875 -12.445312 C 31.402344 -11.96875 31.507812 -11.429688 31.507812 -10.832031 C 31.507812 -9.398438 30.957031 -8.128906 29.859375 -7.03125 C 28.957031 -6.128906 27.84375 -5.429688 26.511719 -4.929688 C 25.230469 -4.449219 23.890625 -4.207031 22.492188 -4.207031 C 19.996094 -4.207031 17.746094 -4.578125 15.75 -5.316406 C 13.855469 -6.019531 12.171875 -6.832031 10.699219 -7.753906 C 9.339844 -8.605469 8.152344 -9.359375 7.136719 -10.015625 C 6.480469 -10.4375 5.988281 -10.648438 5.660156 -10.648438 C 5.867188 -10.648438 6.023438 -10.6875 6.132812 -10.761719 C 6.054688 -10.707031 5.945312 -10.585938 5.800781 -10.398438 C 5.347656 -9.796875 4.917969 -9.042969 4.511719 -8.132812 C 4.078125 -7.160156 3.726562 -6.226562 3.460938 -5.324219 C 3.226562 -4.527344 3.109375 -3.972656 3.109375 -3.660156 C 3.109375 -3.804688 3.082031 -3.941406 3.027344 -4.066406 C 3 -4.128906 2.972656 -4.175781 2.945312 -4.203125 C 3.035156 -4.105469 3.230469 -3.980469 3.527344 -3.832031 C 4.433594 -3.371094 5.636719 -2.96875 7.144531 -2.617188 C 8.742188 -2.242188 10.457031 -1.949219 12.28125 -1.730469 C 14.101562 -1.511719 15.796875 -1.402344 17.371094 -1.402344 C 18.574219 -1.402344 19.933594 -1.578125 21.449219 -1.933594 C 22.914062 -2.273438 24.316406 -2.835938 25.660156 -3.625 C 26.898438 -4.347656 27.921875 -5.332031 28.730469 -6.578125 C 29.492188 -7.753906 29.875 -9.253906 29.875 -11.074219 C 29.875 -12.980469 29.460938 -14.539062 28.632812 -15.753906 C 27.75 -17.050781 26.574219 -18.105469 25.097656 -18.914062 C 23.480469 -19.808594 21.675781 -20.515625 19.679688 -21.039062 C 17.570312 -21.59375 15.464844 -22.0625 13.359375 -22.445312 C 11.929688 -22.71875 10.621094 -23.027344 9.433594 -23.371094 C 8.039062 -23.773438 6.90625 -24.324219 6.035156 -25.023438 C 4.847656 -25.972656 4.257812 -27.175781 4.257812 -28.640625 C 4.257812 -29.96875 4.625 -31.078125 5.363281 -31.960938 C 6.011719 -32.742188 6.824219 -33.3125 7.800781 -33.671875 C 8.65625 -33.984375 9.488281 -34.144531 10.296875 -34.144531 C 11.914062 -34.144531 13.449219 -33.722656 14.902344 -32.878906 C 16.140625 -32.160156 17.355469 -31.285156 18.550781 -30.253906 L 21.84375 -27.398438 C 22.835938 -26.539062 23.855469 -25.816406 24.898438 -25.238281 C 25.746094 -24.765625 26.636719 -24.53125 27.566406 -24.53125 C 27.53125 -24.53125 27.5 -24.527344 27.476562 -24.523438 C 27.488281 -24.523438 27.511719 -24.535156 27.539062 -24.550781 C 27.691406 -24.625 27.871094 -24.757812 28.085938 -24.953125 C 28.597656 -25.421875 29.050781 -26.046875 29.433594 -26.828125 C 29.792969 -27.554688 29.972656 -28.289062 29.972656 -29.03125 C 29.972656 -29.011719 29.972656 -28.992188 29.976562 -28.976562 C 29.976562 -28.984375 29.96875 -29 29.957031 -29.019531 C 29.878906 -29.15625 29.730469 -29.3125 29.511719 -29.496094 C 28.878906 -30.027344 27.945312 -30.539062 26.714844 -31.023438 C 25.394531 -31.539062 23.863281 -31.957031 22.113281 -32.273438 C 20.351562 -32.59375 18.460938 -32.753906 16.441406 -32.753906 C 14.71875 -32.753906 13.003906 -32.59375 11.296875 -32.277344 C 9.65625 -31.972656 8.15625 -31.476562 6.792969 -30.785156 C 5.574219 -30.167969 4.601562 -29.335938 3.882812 -28.285156 C 3.207031 -27.300781 2.867188 -26.003906 2.867188 -24.398438 Z M 2.867188 -24.398438 "/></g></g></g><g clip-path="url(#db363aed44)"><g fill="#ffffff" fill-opacity="1"><g transform="translate(66.713442, 51.714572)"><g><path d="M 0 -36.289062 C 0.601562 -36.289062 1.339844 -36.539062 2.214844 -37.035156 C 3.308594 -37.65625 4.425781 -38.441406 5.566406 -39.386719 C 6.777344 -40.386719 7.921875 -41.382812 9.003906 -42.367188 C 10.140625 -43.40625 11.148438 -44.277344 12.027344 -44.988281 C 12.546875 -45.410156 13.015625 -45.734375 13.433594 -45.964844 C 14.066406 -46.3125 14.660156 -46.488281 15.222656 -46.488281 C 16.222656 -46.488281 17.011719 -46.121094 17.59375 -45.386719 C 18.054688 -44.800781 18.285156 -44.066406 18.285156 -43.183594 L 18.285156 -34.15625 L 16.152344 -34.15625 L 16.152344 -36.289062 L 22.480469 -36.289062 L 22.480469 -29.582031 L 16.152344 -29.582031 L 16.152344 -31.714844 L 18.285156 -31.714844 L 18.285156 -12.003906 C 18.285156 -10.753906 18.300781 -9.503906 18.332031 -8.253906 C 18.359375 -7.1875 18.503906 -6.25 18.769531 -5.4375 C 18.9375 -4.90625 19.234375 -4.503906 19.660156 -4.226562 C 19.507812 -4.328125 19.320312 -4.378906 19.101562 -4.378906 C 19.511719 -4.378906 19.929688 -4.320312 20.347656 -4.199219 L 22.082031 -3.703125 L 21.882812 -1.910156 C 21.75 -0.726562 21.160156 0.273438 20.113281 1.082031 C 19.332031 1.683594 18.421875 2.136719 17.382812 2.441406 C 16.40625 2.722656 15.425781 2.867188 14.441406 2.867188 C 11.734375 2.867188 9.511719 2.386719 7.777344 1.429688 C 6.003906 0.453125 4.652344 -0.875 3.722656 -2.550781 C 2.863281 -4.09375 2.292969 -5.804688 2.011719 -7.683594 C 1.753906 -9.417969 1.621094 -11.164062 1.621094 -12.929688 L 1.621094 -28.59375 C 1.621094 -29.011719 1.601562 -29.425781 1.558594 -29.84375 L 1.566406 -29.847656 C 1.582031 -29.808594 1.605469 -29.773438 1.636719 -29.742188 C 1.746094 -29.636719 1.839844 -29.570312 1.925781 -29.546875 C 1.84375 -29.570312 1.703125 -29.582031 1.511719 -29.582031 L -2.132812 -29.582031 L -2.132812 -36.289062 Z M 0 -32.019531 L 0 -34.15625 L 2.132812 -34.15625 L 2.132812 -31.714844 L 0 -31.714844 L 0 -33.851562 L 1.511719 -33.851562 C 2.882812 -33.851562 3.929688 -33.488281 4.65625 -32.761719 C 5.324219 -32.09375 5.707031 -31.261719 5.808594 -30.269531 C 5.863281 -29.710938 5.890625 -29.152344 5.890625 -28.59375 L 5.890625 -12.929688 C 5.890625 -11.378906 6.007812 -9.839844 6.234375 -8.320312 C 6.441406 -6.945312 6.847656 -5.714844 7.453125 -4.621094 C 7.984375 -3.664062 8.78125 -2.890625 9.839844 -2.308594 C 10.933594 -1.703125 12.46875 -1.402344 14.441406 -1.402344 C 15.019531 -1.402344 15.601562 -1.488281 16.1875 -1.660156 C 16.710938 -1.8125 17.148438 -2.023438 17.507812 -2.300781 C 17.585938 -2.363281 17.636719 -2.410156 17.660156 -2.445312 C 17.648438 -2.429688 17.640625 -2.410156 17.640625 -2.382812 L 19.761719 -2.148438 L 19.175781 -0.09375 C 19.140625 -0.105469 19.113281 -0.109375 19.101562 -0.109375 C 18.460938 -0.109375 17.867188 -0.289062 17.324219 -0.652344 C 16.058594 -1.480469 15.183594 -2.640625 14.703125 -4.125 C 14.316406 -5.328125 14.101562 -6.667969 14.066406 -8.140625 C 14.03125 -9.429688 14.015625 -10.714844 14.015625 -12.003906 L 14.015625 -33.851562 L 20.347656 -33.851562 L 20.347656 -31.714844 L 18.210938 -31.714844 L 18.210938 -34.15625 L 20.347656 -34.15625 L 20.347656 -32.019531 L 14.015625 -32.019531 L 14.015625 -43.183594 C 14.015625 -43.199219 14.015625 -43.210938 14.015625 -43.214844 C 14.015625 -43.199219 14.019531 -43.175781 14.027344 -43.148438 C 14.066406 -43.007812 14.136719 -42.871094 14.246094 -42.734375 C 14.394531 -42.546875 14.578125 -42.40625 14.800781 -42.3125 C 14.949219 -42.25 15.089844 -42.21875 15.222656 -42.21875 C 15.359375 -42.21875 15.476562 -42.234375 15.574219 -42.265625 C 15.554688 -42.257812 15.527344 -42.246094 15.5 -42.230469 C 15.300781 -42.117188 15.035156 -41.929688 14.710938 -41.667969 C 13.898438 -41.011719 12.953125 -40.195312 11.878906 -39.214844 C 10.75 -38.183594 9.554688 -37.144531 8.289062 -36.097656 C 6.957031 -34.992188 5.636719 -34.070312 4.324219 -33.324219 C 2.792969 -32.453125 1.351562 -32.019531 0 -32.019531 Z M 0 -32.019531 "/></g></g></g></g><g fill="#e24861" fill-opacity="1"><g transform="translate(2.553029, 51.714572)"><g><path d="M 1.21875 -16.15625 C 1.21875 -19.726562 1.882812 -22.921875 3.21875 -25.734375 C 4.550781 -28.554688 6.519531 -30.785156 9.125 -32.421875 C 11.726562 -34.066406 14.929688 -34.890625 18.734375 -34.890625 C 21.628906 -34.890625 24.09375 -34.269531 26.125 -33.03125 C 28.164062 -31.800781 29.710938 -30.191406 30.765625 -28.203125 C 31.828125 -26.222656 32.359375 -24.109375 32.359375 -21.859375 C 32.359375 -20.234375 31.972656 -18.972656 31.203125 -18.078125 C 30.441406 -17.179688 29.398438 -16.546875 28.078125 -16.171875 C 26.765625 -15.796875 25.273438 -15.578125 23.609375 -15.515625 C 21.953125 -15.453125 20.222656 -15.457031 18.421875 -15.53125 C 16.617188 -15.613281 14.851562 -15.65625 13.125 -15.65625 C 12.894531 -15.65625 12.648438 -15.628906 12.390625 -15.578125 C 12.128906 -15.535156 12 -15.304688 12 -14.890625 C 12 -14.460938 12.429688 -13.875 13.296875 -13.125 C 14.160156 -12.375 15.273438 -11.609375 16.640625 -10.828125 C 18.003906 -10.046875 19.46875 -9.394531 21.03125 -8.875 C 22.59375 -8.351562 24.070312 -8.09375 25.46875 -8.09375 C 26.644531 -8.09375 27.585938 -8.222656 28.296875 -8.484375 C 29.015625 -8.742188 29.582031 -9.035156 30 -9.359375 C 30.425781 -9.691406 30.773438 -9.988281 31.046875 -10.25 C 31.328125 -10.507812 31.582031 -10.640625 31.8125 -10.640625 C 31.976562 -10.640625 32.148438 -10.570312 32.328125 -10.4375 C 32.503906 -10.3125 32.59375 -10.035156 32.59375 -9.609375 C 32.59375 -8.703125 32.320312 -7.65625 31.78125 -6.46875 C 31.25 -5.28125 30.4375 -4.140625 29.34375 -3.046875 C 28.257812 -1.960938 26.863281 -1.0625 25.15625 -0.34375 C 23.445312 0.375 21.421875 0.734375 19.078125 0.734375 C 16.734375 0.734375 14.488281 0.3125 12.34375 -0.53125 C 10.195312 -1.382812 8.289062 -2.570312 6.625 -4.09375 C 4.96875 -5.625 3.648438 -7.414062 2.671875 -9.46875 C 1.703125 -11.519531 1.21875 -13.75 1.21875 -16.15625 Z M 6.6875 -25.078125 C 6.6875 -23.941406 6.875 -22.828125 7.25 -21.734375 C 7.625 -20.648438 8.222656 -19.753906 9.046875 -19.046875 C 9.878906 -18.347656 10.945312 -18 12.25 -18 C 13.382812 -18 14.535156 -18.039062 15.703125 -18.125 C 16.878906 -18.207031 17.960938 -18.367188 18.953125 -18.609375 C 19.953125 -18.859375 20.75 -19.226562 21.34375 -19.71875 C 21.945312 -20.207031 22.25 -20.859375 22.25 -21.671875 C 22.25 -22.929688 21.929688 -24.050781 21.296875 -25.03125 C 20.660156 -26.007812 19.832031 -26.835938 18.8125 -27.515625 C 17.789062 -28.203125 16.707031 -28.71875 15.5625 -29.0625 C 14.425781 -29.40625 13.335938 -29.578125 12.296875 -29.578125 C 11.390625 -29.578125 10.503906 -29.394531 9.640625 -29.03125 C 8.773438 -28.675781 8.066406 -28.164062 7.515625 -27.5 C 6.960938 -26.832031 6.6875 -26.023438 6.6875 -25.078125 Z M 6.6875 -25.078125 "/></g></g></g><g fill="#e24861" fill-opacity="1"><g transform="translate(34.99917, 51.714572)"><g><path d="M 0.734375 -24.40625 C 0.734375 -26.445312 1.195312 -28.140625 2.125 -29.484375 C 3.050781 -30.835938 4.285156 -31.90625 5.828125 -32.6875 C 7.378906 -33.46875 9.070312 -34.03125 10.90625 -34.375 C 12.738281 -34.71875 14.582031 -34.890625 16.4375 -34.890625 C 18.59375 -34.890625 20.613281 -34.71875 22.5 -34.375 C 24.382812 -34.03125 26.050781 -33.570312 27.5 -33 C 28.945312 -32.4375 30.078125 -31.8125 30.890625 -31.125 C 31.703125 -30.445312 32.109375 -29.75 32.109375 -29.03125 C 32.109375 -27.957031 31.851562 -26.90625 31.34375 -25.875 C 30.84375 -24.851562 30.234375 -24.015625 29.515625 -23.359375 C 28.804688 -22.710938 28.15625 -22.390625 27.5625 -22.390625 C 26.269531 -22.390625 25.035156 -22.710938 23.859375 -23.359375 C 22.691406 -24.015625 21.550781 -24.820312 20.4375 -25.78125 C 19.332031 -26.75 18.234375 -27.703125 17.140625 -28.640625 C 16.054688 -29.585938 14.953125 -30.382812 13.828125 -31.03125 C 12.710938 -31.6875 11.535156 -32.015625 10.296875 -32.015625 C 9.742188 -32.015625 9.15625 -31.898438 8.53125 -31.671875 C 7.914062 -31.441406 7.40625 -31.082031 7 -30.59375 C 6.59375 -30.101562 6.390625 -29.453125 6.390625 -28.640625 C 6.390625 -27.859375 6.710938 -27.207031 7.359375 -26.6875 C 8.015625 -26.164062 8.90625 -25.742188 10.03125 -25.421875 C 11.15625 -25.097656 12.398438 -24.804688 13.765625 -24.546875 C 15.910156 -24.148438 18.0625 -23.664062 20.21875 -23.09375 C 22.382812 -22.53125 24.351562 -21.757812 26.125 -20.78125 C 27.90625 -19.8125 29.332031 -18.535156 30.40625 -16.953125 C 31.476562 -15.378906 32.015625 -13.421875 32.015625 -11.078125 C 32.015625 -8.828125 31.515625 -6.9375 30.515625 -5.40625 C 29.523438 -3.882812 28.265625 -2.675781 26.734375 -1.78125 C 25.210938 -0.882812 23.613281 -0.242188 21.9375 0.140625 C 20.257812 0.535156 18.738281 0.734375 17.375 0.734375 C 15.71875 0.734375 13.9375 0.617188 12.03125 0.390625 C 10.125 0.160156 8.332031 -0.144531 6.65625 -0.53125 C 4.976562 -0.925781 3.609375 -1.390625 2.546875 -1.921875 C 1.492188 -2.460938 0.96875 -3.039062 0.96875 -3.65625 C 0.96875 -4.175781 1.113281 -4.929688 1.40625 -5.921875 C 1.707031 -6.921875 2.09375 -7.945312 2.5625 -9 C 3.03125 -10.0625 3.539062 -10.957031 4.09375 -11.6875 C 4.644531 -12.414062 5.164062 -12.78125 5.65625 -12.78125 C 6.40625 -12.78125 7.285156 -12.453125 8.296875 -11.796875 C 9.304688 -11.148438 10.484375 -10.40625 11.828125 -9.5625 C 13.179688 -8.71875 14.734375 -7.96875 16.484375 -7.3125 C 18.242188 -6.664062 20.25 -6.34375 22.5 -6.34375 C 23.632812 -6.34375 24.722656 -6.535156 25.765625 -6.921875 C 26.804688 -7.316406 27.664062 -7.851562 28.34375 -8.53125 C 29.03125 -9.21875 29.375 -9.984375 29.375 -10.828125 C 29.375 -11.421875 29.191406 -11.820312 28.828125 -12.03125 C 28.472656 -12.238281 27.972656 -12.34375 27.328125 -12.34375 C 26.410156 -12.34375 25.242188 -12.238281 23.828125 -12.03125 C 22.421875 -11.820312 20.789062 -11.71875 18.9375 -11.71875 C 16.945312 -11.71875 14.894531 -11.925781 12.78125 -12.34375 C 10.664062 -12.769531 8.695312 -13.476562 6.875 -14.46875 C 5.050781 -15.457031 3.570312 -16.765625 2.4375 -18.390625 C 1.300781 -20.023438 0.734375 -22.03125 0.734375 -24.40625 Z M 0.734375 -24.40625 "/></g></g></g><g fill="#e24861" fill-opacity="1"><g transform="translate(66.713442, 51.714572)"><g><path d="M 0 -34.15625 C 0.976562 -34.15625 2.066406 -34.492188 3.265625 -35.171875 C 4.472656 -35.859375 5.691406 -36.710938 6.921875 -37.734375 C 8.160156 -38.765625 9.332031 -39.785156 10.4375 -40.796875 C 11.550781 -41.804688 12.53125 -42.648438 13.375 -43.328125 C 14.21875 -44.015625 14.832031 -44.359375 15.21875 -44.359375 C 15.84375 -44.359375 16.15625 -43.96875 16.15625 -43.1875 L 16.15625 -34.15625 L 20.34375 -34.15625 L 20.34375 -31.71875 L 16.15625 -31.71875 L 16.15625 -12 C 16.15625 -10.726562 16.171875 -9.457031 16.203125 -8.1875 C 16.234375 -6.925781 16.410156 -5.789062 16.734375 -4.78125 C 17.054688 -3.769531 17.644531 -2.988281 18.5 -2.4375 C 18.6875 -2.3125 18.882812 -2.25 19.09375 -2.25 C 19.3125 -2.25 19.535156 -2.210938 19.765625 -2.140625 C 19.703125 -1.554688 19.382812 -1.046875 18.8125 -0.609375 C 18.238281 -0.171875 17.5625 0.160156 16.78125 0.390625 C 16 0.617188 15.21875 0.734375 14.4375 0.734375 C 12.101562 0.734375 10.226562 0.34375 8.8125 -0.4375 C 7.394531 -1.21875 6.316406 -2.265625 5.578125 -3.578125 C 4.847656 -4.898438 4.359375 -6.375 4.109375 -8 C 3.867188 -9.625 3.75 -11.269531 3.75 -12.9375 L 3.75 -28.59375 C 3.75 -29.082031 3.722656 -29.570312 3.671875 -30.0625 C 3.628906 -30.550781 3.453125 -30.945312 3.140625 -31.25 C 2.835938 -31.5625 2.296875 -31.71875 1.515625 -31.71875 L 0 -31.71875 Z M 0 -34.15625 "/></g></g></g></g></g><g transform="matrix(1, 0, 0, 1, 30, 17)"><g clip-path="url(#0a8163346b)"><g fill="#e24861" fill-opacity="1"><g transform="translate(10.50859, 38.94904)"><g><path d="M 0.109375 -4.171875 C 0.109375 -4.078125 0.0625 -3.992188 -0.03125 -3.921875 C -0.125 -3.847656 -0.234375 -3.8125 -0.359375 -3.8125 L -3.3125 -3.828125 C -3.71875 -3.804688 -4.039062 -3.726562 -4.28125 -3.59375 C -4.53125 -3.457031 -4.601562 -3.242188 -4.5 -2.953125 C -4.445312 -2.847656 -4.375 -2.742188 -4.28125 -2.640625 C -4.1875 -2.535156 -4.046875 -2.476562 -3.859375 -2.46875 L -0.296875 -2.546875 C -0.179688 -2.566406 -0.0859375 -2.519531 -0.015625 -2.40625 C 0.046875 -2.300781 0.078125 -2.203125 0.078125 -2.109375 L 0.078125 -0.453125 C 0.078125 -0.335938 0.046875 -0.238281 -0.015625 -0.15625 C -0.0859375 -0.0703125 -0.175781 -0.03125 -0.28125 -0.03125 L -6.09375 0 C -6.1875 0 -6.269531 -0.0390625 -6.34375 -0.125 C -6.425781 -0.21875 -6.46875 -0.316406 -6.46875 -0.421875 L -6.46875 -1.96875 C -6.46875 -2.101562 -6.429688 -2.207031 -6.359375 -2.28125 C -6.472656 -2.894531 -6.503906 -3.445312 -6.453125 -3.9375 C -6.398438 -4.4375 -6.28125 -4.847656 -6.09375 -5.171875 C -5.925781 -5.453125 -5.742188 -5.671875 -5.546875 -5.828125 C -5.359375 -5.992188 -5.132812 -6.109375 -4.875 -6.171875 C -4.613281 -6.234375 -4.304688 -6.269531 -3.953125 -6.28125 C -3.597656 -6.300781 -3.171875 -6.3125 -2.671875 -6.3125 L -0.359375 -6.296875 C -0.234375 -6.296875 -0.125 -6.257812 -0.03125 -6.1875 C 0.0625 -6.113281 0.109375 -6.023438 0.109375 -5.921875 Z M 0.109375 -4.171875 "/></g></g></g><g fill="#e24861" fill-opacity="1"><g transform="translate(10.50859, 31.365487)"><g><path d="M 0.09375 -4.4375 C 0.09375 -4.332031 0.046875 -4.234375 -0.046875 -4.140625 C -0.0664062 -4.128906 -0.0859375 -4.113281 -0.109375 -4.09375 C -0.128906 -4.082031 -0.148438 -4.070312 -0.171875 -4.0625 C 0.015625 -3.445312 0.109375 -2.882812 0.109375 -2.375 C 0.109375 -1.875 0.015625 -1.460938 -0.171875 -1.140625 C -0.410156 -0.765625 -0.675781 -0.492188 -0.96875 -0.328125 C -1.257812 -0.171875 -1.625 -0.078125 -2.0625 -0.046875 C -2.5 -0.0234375 -3.046875 -0.0078125 -3.703125 0 L -6.03125 -0.015625 C -6.164062 -0.015625 -6.269531 -0.0507812 -6.34375 -0.125 C -6.4375 -0.207031 -6.484375 -0.289062 -6.484375 -0.375 L -6.484375 -2.140625 C -6.484375 -2.234375 -6.4375 -2.316406 -6.34375 -2.390625 C -6.25 -2.460938 -6.144531 -2.5 -6.03125 -2.5 L -3.078125 -2.46875 C -2.660156 -2.488281 -2.328125 -2.566406 -2.078125 -2.703125 C -1.835938 -2.847656 -1.769531 -3.066406 -1.875 -3.359375 C -1.925781 -3.523438 -2.019531 -3.664062 -2.15625 -3.78125 C -2.300781 -3.894531 -2.414062 -3.960938 -2.5 -3.984375 L -5.921875 -3.890625 C -6.046875 -3.878906 -6.160156 -3.921875 -6.265625 -4.015625 C -6.347656 -4.097656 -6.390625 -4.195312 -6.390625 -4.3125 L -6.40625 -6.171875 C -6.40625 -6.273438 -6.363281 -6.375 -6.28125 -6.46875 C -6.195312 -6.539062 -6.082031 -6.578125 -5.9375 -6.578125 L -0.359375 -6.609375 C -0.234375 -6.609375 -0.125 -6.566406 -0.03125 -6.484375 C 0.0625 -6.410156 0.109375 -6.316406 0.109375 -6.203125 Z M 0.09375 -4.4375 "/></g></g></g><g fill="#e24861" fill-opacity="1"><g transform="translate(10.50859, 23.484317)"><g><path d="M 0.015625 -4.046875 C 0.015625 -3.929688 -0.03125 -3.832031 -0.125 -3.75 C -0.125 -3.75 -0.125 -3.742188 -0.125 -3.734375 C -0.125 -3.734375 -0.128906 -3.734375 -0.140625 -3.734375 C 0.0546875 -2.972656 0.113281 -2.328125 0.03125 -1.796875 C -0.0390625 -1.273438 -0.3125 -0.878906 -0.78125 -0.609375 C -1.207031 -0.359375 -1.707031 -0.179688 -2.28125 -0.078125 C -2.863281 0.0234375 -3.421875 0.03125 -3.953125 -0.0625 C -4.535156 -0.164062 -5.03125 -0.363281 -5.4375 -0.65625 C -5.851562 -0.945312 -6.144531 -1.347656 -6.3125 -1.859375 C -6.488281 -2.378906 -6.507812 -3.023438 -6.375 -3.796875 L -7.875 -3.84375 C -8.007812 -3.84375 -8.125 -3.882812 -8.21875 -3.96875 C -8.300781 -4.050781 -8.34375 -4.148438 -8.34375 -4.265625 L -8.359375 -5.78125 C -8.359375 -5.882812 -8.3125 -5.976562 -8.21875 -6.0625 C -8.125 -6.132812 -8.015625 -6.171875 -7.890625 -6.171875 L -0.4375 -6.15625 C -0.289062 -6.15625 -0.179688 -6.113281 -0.109375 -6.03125 C -0.015625 -5.945312 0.03125 -5.851562 0.03125 -5.75 Z M -3.03125 -2.421875 C -2.582031 -2.421875 -2.25 -2.507812 -2.03125 -2.6875 C -1.820312 -2.863281 -1.773438 -3.109375 -1.890625 -3.421875 C -1.921875 -3.523438 -1.972656 -3.59375 -2.046875 -3.625 C -2.117188 -3.65625 -2.21875 -3.675781 -2.34375 -3.6875 L -2.625 -3.6875 L -3.796875 -3.734375 L -3.828125 -3.734375 C -3.921875 -3.734375 -4.039062 -3.6875 -4.1875 -3.59375 C -4.34375 -3.507812 -4.445312 -3.410156 -4.5 -3.296875 C -4.582031 -3.078125 -4.566406 -2.90625 -4.453125 -2.78125 C -4.335938 -2.65625 -4.160156 -2.5625 -3.921875 -2.5 C -3.679688 -2.445312 -3.398438 -2.421875 -3.078125 -2.421875 Z M -3.03125 -2.421875 "/></g></g></g><g fill="#e24861" fill-opacity="1"><g transform="translate(10.50859, 16.031717)"><g><path d="M 2.3125 -0.515625 C 2.289062 -0.378906 2.222656 -0.285156 2.109375 -0.234375 C 2.003906 -0.179688 1.90625 -0.160156 1.8125 -0.171875 L 0.625 -0.453125 C 0.46875 -0.472656 0.363281 -0.546875 0.3125 -0.671875 C 0.257812 -0.804688 0.253906 -0.929688 0.296875 -1.046875 C 0.378906 -1.273438 0.457031 -1.519531 0.53125 -1.78125 C 0.601562 -2.039062 0.644531 -2.300781 0.65625 -2.5625 C 0.664062 -2.820312 0.625 -3.070312 0.53125 -3.3125 C 0.457031 -3.488281 0.34375 -3.609375 0.1875 -3.671875 C 0.03125 -3.742188 -0.171875 -3.78125 -0.421875 -3.78125 C -0.335938 -3.40625 -0.3125 -3.019531 -0.34375 -2.625 C -0.375 -2.226562 -0.460938 -1.863281 -0.609375 -1.53125 C -0.765625 -1.195312 -0.972656 -0.910156 -1.234375 -0.671875 C -1.585938 -0.367188 -2.015625 -0.171875 -2.515625 -0.078125 C -3.023438 0.015625 -3.523438 0.015625 -4.015625 -0.078125 C -4.609375 -0.179688 -5.085938 -0.40625 -5.453125 -0.75 C -5.828125 -1.101562 -6.082031 -1.53125 -6.21875 -2.03125 C -6.351562 -2.53125 -6.351562 -3.0625 -6.21875 -3.625 C -6.207031 -3.65625 -6.195312 -3.6875 -6.1875 -3.71875 C -6.175781 -3.75 -6.164062 -3.773438 -6.15625 -3.796875 C -6.3125 -3.878906 -6.390625 -4.003906 -6.390625 -4.171875 L -6.390625 -5.625 C -6.390625 -5.757812 -6.34375 -5.863281 -6.25 -5.9375 C -6.164062 -6.019531 -6.078125 -6.0625 -5.984375 -6.0625 C -5.210938 -6.070312 -4.566406 -6.085938 -4.046875 -6.109375 C -3.535156 -6.128906 -3.097656 -6.144531 -2.734375 -6.15625 C -2.378906 -6.164062 -2.066406 -6.175781 -1.796875 -6.1875 C -1.523438 -6.195312 -1.265625 -6.203125 -1.015625 -6.203125 C -0.765625 -6.203125 -0.484375 -6.191406 -0.171875 -6.171875 C 0.453125 -6.148438 0.957031 -6 1.34375 -5.71875 C 1.726562 -5.4375 2.050781 -5.015625 2.3125 -4.453125 C 2.457031 -4.117188 2.539062 -3.738281 2.5625 -3.3125 C 2.59375 -2.882812 2.578125 -2.429688 2.515625 -1.953125 C 2.453125 -1.472656 2.382812 -0.992188 2.3125 -0.515625 Z M -4.375 -3.3125 C -4.363281 -2.976562 -4.273438 -2.710938 -4.109375 -2.515625 C -3.953125 -2.316406 -3.757812 -2.1875 -3.53125 -2.125 C -3.3125 -2.070312 -3.09375 -2.082031 -2.875 -2.15625 C -2.65625 -2.226562 -2.476562 -2.363281 -2.34375 -2.5625 C -2.207031 -2.757812 -2.148438 -3.019531 -2.171875 -3.34375 C -2.191406 -3.5 -2.238281 -3.625 -2.3125 -3.71875 C -2.382812 -3.820312 -2.472656 -3.867188 -2.578125 -3.859375 L -4.21875 -3.796875 C -4.320312 -3.785156 -4.375 -3.734375 -4.375 -3.640625 C -4.382812 -3.554688 -4.382812 -3.445312 -4.375 -3.3125 Z M -4.375 -3.3125 "/></g></g></g><g fill="#e24861" fill-opacity="1"><g transform="translate(10.50859, 8.555308)"><g><path d="M 0.15625 -4.03125 C 0.300781 -3.363281 0.289062 -2.75 0.125 -2.1875 C -0.0390625 -1.632812 -0.332031 -1.171875 -0.75 -0.796875 C -1.164062 -0.429688 -1.679688 -0.191406 -2.296875 -0.078125 C -2.847656 0.0234375 -3.40625 0.0234375 -3.96875 -0.078125 C -4.539062 -0.179688 -5.019531 -0.398438 -5.40625 -0.734375 C -5.695312 -0.992188 -5.925781 -1.3125 -6.09375 -1.6875 C -6.269531 -2.070312 -6.378906 -2.484375 -6.421875 -2.921875 C -6.460938 -3.359375 -6.425781 -3.78125 -6.3125 -4.1875 C -6.207031 -4.582031 -6.039062 -4.90625 -5.8125 -5.15625 C -5.59375 -5.40625 -5.335938 -5.59375 -5.046875 -5.71875 C -4.765625 -5.851562 -4.484375 -5.941406 -4.203125 -5.984375 C -3.921875 -6.035156 -3.679688 -6.050781 -3.484375 -6.03125 L -2.796875 -5.984375 C -2.679688 -5.984375 -2.625 -5.929688 -2.625 -5.828125 L -2.625 -2.546875 C -2.289062 -2.578125 -2.035156 -2.644531 -1.859375 -2.75 C -1.679688 -2.863281 -1.640625 -3.050781 -1.734375 -3.3125 C -1.796875 -3.425781 -1.847656 -3.492188 -1.890625 -3.515625 C -1.929688 -3.546875 -1.976562 -3.5625 -2.03125 -3.5625 C -2.125 -3.570312 -2.175781 -3.609375 -2.1875 -3.671875 C -2.207031 -3.742188 -2.210938 -3.828125 -2.203125 -3.921875 L -2.03125 -5.4375 C -2.03125 -5.550781 -2.007812 -5.632812 -1.96875 -5.6875 C -1.925781 -5.75 -1.859375 -5.78125 -1.765625 -5.78125 C -1.472656 -5.78125 -1.203125 -5.734375 -0.953125 -5.640625 C -0.703125 -5.546875 -0.484375 -5.367188 -0.296875 -5.109375 C -0.109375 -4.859375 0.0390625 -4.5 0.15625 -4.03125 Z M -3.8125 -2.578125 L -3.8125 -3.734375 C -3.894531 -3.734375 -4 -3.71875 -4.125 -3.6875 C -4.257812 -3.664062 -4.359375 -3.597656 -4.421875 -3.484375 C -4.503906 -3.210938 -4.492188 -3.003906 -4.390625 -2.859375 C -4.285156 -2.722656 -4.09375 -2.628906 -3.8125 -2.578125 Z M -3.8125 -2.578125 "/></g></g></g><g fill="#e24861" fill-opacity="1"><g transform="translate(27.071785, 23.755961)"><g><path d="M 0.15625 -4.03125 C 0.300781 -3.363281 0.289062 -2.75 0.125 -2.1875 C -0.0390625 -1.632812 -0.332031 -1.171875 -0.75 -0.796875 C -1.164062 -0.429688 -1.679688 -0.191406 -2.296875 -0.078125 C -2.847656 0.0234375 -3.40625 0.0234375 -3.96875 -0.078125 C -4.539062 -0.179688 -5.019531 -0.398438 -5.40625 -0.734375 C -5.695312 -0.992188 -5.925781 -1.3125 -6.09375 -1.6875 C -6.269531 -2.070312 -6.378906 -2.484375 -6.421875 -2.921875 C -6.460938 -3.359375 -6.425781 -3.78125 -6.3125 -4.1875 C -6.207031 -4.582031 -6.039062 -4.90625 -5.8125 -5.15625 C -5.59375 -5.40625 -5.335938 -5.59375 -5.046875 -5.71875 C -4.765625 -5.851562 -4.484375 -5.941406 -4.203125 -5.984375 C -3.921875 -6.035156 -3.679688 -6.050781 -3.484375 -6.03125 L -2.796875 -5.984375 C -2.679688 -5.984375 -2.625 -5.929688 -2.625 -5.828125 L -2.625 -2.546875 C -2.289062 -2.578125 -2.035156 -2.644531 -1.859375 -2.75 C -1.679688 -2.863281 -1.640625 -3.050781 -1.734375 -3.3125 C -1.796875 -3.425781 -1.847656 -3.492188 -1.890625 -3.515625 C -1.929688 -3.546875 -1.976562 -3.5625 -2.03125 -3.5625 C -2.125 -3.570312 -2.175781 -3.609375 -2.1875 -3.671875 C -2.207031 -3.742188 -2.210938 -3.828125 -2.203125 -3.921875 L -2.03125 -5.4375 C -2.03125 -5.550781 -2.007812 -5.632812 -1.96875 -5.6875 C -1.925781 -5.75 -1.859375 -5.78125 -1.765625 -5.78125 C -1.472656 -5.78125 -1.203125 -5.734375 -0.953125 -5.640625 C -0.703125 -5.546875 -0.484375 -5.367188 -0.296875 -5.109375 C -0.109375 -4.859375 0.0390625 -4.5 0.15625 -4.03125 Z M -3.8125 -2.578125 L -3.8125 -3.734375 C -3.894531 -3.734375 -4 -3.71875 -4.125 -3.6875 C -4.257812 -3.664062 -4.359375 -3.597656 -4.421875 -3.484375 C -4.503906 -3.210938 -4.492188 -3.003906 -4.390625 -2.859375 C -4.285156 -2.722656 -4.09375 -2.628906 -3.8125 -2.578125 Z M -3.8125 -2.578125 "/></g></g></g></g></g></svg>